<svg width="327" height="66" viewBox="0 0 327 66" fill="none" xmlns="http://www.w3.org/2000/svg">
<g filter="url(#filter0_d_1868_13541)">
<rect x="-0.000976562" width="327" height="56" rx="12" fill="#7E2DFC"/>
<path d="M149.968 34V29.0469H150.39L154.671 34H157.218L152.085 28.0859L156.796 22.7266H154.46L150.39 27.4922H149.968V22.7266H147.952V34H149.968ZM159.616 24.5312C160.226 24.5312 160.702 24.0469 160.702 23.4688C160.702 22.875 160.226 22.3984 159.616 22.3984C159.007 22.3984 158.53 22.875 158.53 23.4688C158.53 24.0469 159.007 24.5312 159.616 24.5312ZM158.64 34H160.593V25.7188H158.64V34ZM162.866 36.7344H164.812V32.6016H164.851C165.327 33.5703 166.272 34.1641 167.452 34.1641C169.522 34.1641 170.851 32.5234 170.851 29.8672V29.8594C170.851 27.1875 169.53 25.5469 167.421 25.5469C166.241 25.5469 165.327 26.1562 164.858 27.1484H164.812V25.7188H162.866V36.7344ZM166.843 32.5234C165.647 32.5234 164.804 31.4844 164.804 29.8672V29.8594C164.804 28.2344 165.64 27.1875 166.843 27.1875C168.085 27.1875 168.866 28.2031 168.866 29.8594V29.8672C168.866 31.5 168.093 32.5234 166.843 32.5234ZM173.64 36.75C175.358 36.75 176.335 36.1016 176.96 34.2812L179.944 25.7188H177.89L175.952 32.3438H175.89L173.952 25.7188H171.835L174.812 34.0078L174.687 34.3438C174.437 35.0391 174.03 35.25 173.28 35.25C173.007 35.25 172.78 35.2109 172.64 35.1797V36.6641C172.866 36.7031 173.257 36.75 173.64 36.75Z" fill="white"/>
</g>
<defs>
<filter id="filter0_d_1868_13541" x="-0.000976562" y="0" width="327" height="66" filterUnits="userSpaceOnUse" color-interpolation-filters="sRGB">
<feFlood flood-opacity="0" result="BackgroundImageFix"/>
<feColorMatrix in="SourceAlpha" type="matrix" values="0 0 0 0 0 0 0 0 0 0 0 0 0 0 0 0 0 0 127 0" result="hardAlpha"/>
<feMorphology radius="25" operator="erode" in="SourceAlpha" result="effect1_dropShadow_1868_13541"/>
<feOffset dy="10"/>
<feGaussianBlur stdDeviation="12.5"/>
<feColorMatrix type="matrix" values="0 0 0 0 0.0666667 0 0 0 0 0.0941176 0 0 0 0 0.152941 0 0 0 0.1 0"/>
<feBlend mode="normal" in2="BackgroundImageFix" result="effect1_dropShadow_1868_13541"/>
<feBlend mode="normal" in="SourceGraphic" in2="effect1_dropShadow_1868_13541" result="shape"/>
</filter>
</defs>
</svg>
