<svg width="327" height="66" viewBox="0 0 327 66" fill="none" xmlns="http://www.w3.org/2000/svg">
<g filter="url(#filter0_d_0_246)">
<rect width="327" height="56" rx="12" fill="#7E2DFC"/>
<path d="M131.023 34.1953C134.055 34.1953 136.094 31.8828 136.094 28.3828V28.3672C136.094 24.8125 134.055 22.5312 130.867 22.5312C128.602 22.5312 126.836 23.6875 126.195 25.6484L126.141 25.8203H128.188L128.242 25.6875C128.68 24.7656 129.562 24.2812 130.844 24.2812C132.703 24.2812 134.023 25.6875 134.023 27.7422V27.8984H126C125.992 28.1562 125.984 28.4141 125.984 28.6172C125.984 32 127.867 34.1953 131.023 34.1953ZM131.047 32.4453C129.391 32.4453 128.273 31.375 128.141 29.5547L128.133 29.4531H133.992C133.797 31.2969 132.594 32.4453 131.047 32.4453ZM138.203 36.7344H140.148V32.6016H140.188C140.664 33.5703 141.609 34.1641 142.789 34.1641C144.859 34.1641 146.188 32.5234 146.188 29.8672V29.8594C146.188 27.1875 144.867 25.5469 142.758 25.5469C141.578 25.5469 140.664 26.1562 140.195 27.1484H140.148V25.7188H138.203V36.7344ZM142.18 32.5234C140.984 32.5234 140.141 31.4844 140.141 29.8672V29.8594C140.141 28.2344 140.977 27.1875 142.18 27.1875C143.422 27.1875 144.203 28.2031 144.203 29.8594V29.8672C144.203 31.5 143.43 32.5234 142.18 32.5234ZM149.109 24.5312C149.719 24.5312 150.195 24.0469 150.195 23.4688C150.195 22.875 149.719 22.3984 149.109 22.3984C148.5 22.3984 148.023 22.875 148.023 23.4688C148.023 24.0469 148.5 24.5312 149.109 24.5312ZM148.133 34H150.086V25.7188H148.133V34ZM158.305 30.3984L161.148 34H162V36.2266H163.758V32.4688H162.297L160.016 29.5859L163.352 25.7188H161.109L158.305 29.0625H158.016V25.7188H156.07V34H158.016V30.3984H158.305ZM167.734 34.1406C168.82 34.1406 169.742 33.5938 170.227 32.7266H170.266V34H172.211V28.3047C172.211 26.6406 170.883 25.5469 168.805 25.5469C166.703 25.5469 165.438 26.6484 165.312 28.1172L165.305 28.2109H167.109L167.125 28.1406C167.25 27.5312 167.82 27.1016 168.742 27.1016C169.719 27.1016 170.266 27.6094 170.266 28.4453V29.0156L168.102 29.1484C166.102 29.2734 164.953 30.1562 164.953 31.625V31.6406C164.953 33.1172 166.07 34.1406 167.734 34.1406ZM166.898 31.5625V31.5547C166.898 30.8984 167.422 30.4844 168.375 30.4219L170.266 30.3047V30.9297C170.266 31.9141 169.43 32.6562 168.312 32.6562C167.453 32.6562 166.898 32.2422 166.898 31.5625ZM174.406 36.7344H176.352V32.6016H176.391C176.867 33.5703 177.812 34.1641 178.992 34.1641C181.062 34.1641 182.391 32.5234 182.391 29.8672V29.8594C182.391 27.1875 181.07 25.5469 178.961 25.5469C177.781 25.5469 176.867 26.1562 176.398 27.1484H176.352V25.7188H174.406V36.7344ZM178.383 32.5234C177.188 32.5234 176.344 31.4844 176.344 29.8672V29.8594C176.344 28.2344 177.18 27.1875 178.383 27.1875C179.625 27.1875 180.406 28.2031 180.406 29.8594V29.8672C180.406 31.5 179.633 32.5234 178.383 32.5234ZM186.734 34.1406C187.82 34.1406 188.742 33.5938 189.227 32.7266H189.266V34H191.211V28.3047C191.211 26.6406 189.883 25.5469 187.805 25.5469C185.703 25.5469 184.438 26.6484 184.312 28.1172L184.305 28.2109H186.109L186.125 28.1406C186.25 27.5312 186.82 27.1016 187.742 27.1016C188.719 27.1016 189.266 27.6094 189.266 28.4453V29.0156L187.102 29.1484C185.102 29.2734 183.953 30.1562 183.953 31.625V31.6406C183.953 33.1172 185.07 34.1406 186.734 34.1406ZM185.898 31.5625V31.5547C185.898 30.8984 186.422 30.4844 187.375 30.4219L189.266 30.3047V30.9297C189.266 31.9141 188.43 32.6562 187.312 32.6562C186.453 32.6562 185.898 32.2422 185.898 31.5625ZM197.219 24.8281C198.93 24.8281 199.977 23.8516 199.977 22.4141V22.3516H198.484V22.4141C198.484 23.0859 198.016 23.6484 197.227 23.6484C196.406 23.6484 195.969 23.0859 195.969 22.4141V22.3516H194.469V22.4141C194.469 23.8516 195.516 24.8281 197.219 24.8281ZM193.414 34H195.32L198.891 28.4375H198.969V34H200.891V25.7188H198.984L195.414 31.2422H195.336V25.7188H193.414V34Z" fill="white"/>
</g>
<defs>
<filter id="filter0_d_0_246" x="0" y="0" width="327" height="66" filterUnits="userSpaceOnUse" color-interpolation-filters="sRGB">
<feFlood flood-opacity="0" result="BackgroundImageFix"/>
<feColorMatrix in="SourceAlpha" type="matrix" values="0 0 0 0 0 0 0 0 0 0 0 0 0 0 0 0 0 0 127 0" result="hardAlpha"/>
<feMorphology radius="25" operator="erode" in="SourceAlpha" result="effect1_dropShadow_0_246"/>
<feOffset dy="10"/>
<feGaussianBlur stdDeviation="12.5"/>
<feColorMatrix type="matrix" values="0 0 0 0 0.0666667 0 0 0 0 0.0941176 0 0 0 0 0.152941 0 0 0 0.1 0"/>
<feBlend mode="normal" in2="BackgroundImageFix" result="effect1_dropShadow_0_246"/>
<feBlend mode="normal" in="SourceGraphic" in2="effect1_dropShadow_0_246" result="shape"/>
</filter>
</defs>
</svg>
