<svg width="327" height="66" viewBox="0 0 327 66" fill="none" xmlns="http://www.w3.org/2000/svg">
<g filter="url(#filter0_d_1868_16034)">
<rect x="-0.000976562" width="327" height="56" rx="12" fill="#7E2DFC"/>
<path d="M137.28 34H139.296V24.4219H142.663V22.7266H133.913V24.4219H137.28V34ZM145.28 24.5312C145.89 24.5312 146.366 24.0469 146.366 23.4688C146.366 22.875 145.89 22.3984 145.28 22.3984C144.671 22.3984 144.194 22.875 144.194 23.4688C144.194 24.0469 144.671 24.5312 145.28 24.5312ZM144.304 34H146.257V25.7188H144.304V34ZM148.53 36.7344H150.476V32.6016H150.515C150.991 33.5703 151.937 34.1641 153.116 34.1641C155.187 34.1641 156.515 32.5234 156.515 29.8672V29.8594C156.515 27.1875 155.194 25.5469 153.085 25.5469C151.905 25.5469 150.991 26.1562 150.522 27.1484H150.476V25.7188H148.53V36.7344ZM152.507 32.5234C151.312 32.5234 150.468 31.4844 150.468 29.8672V29.8594C150.468 28.2344 151.304 27.1875 152.507 27.1875C153.749 27.1875 154.53 28.2031 154.53 29.8594V29.8672C154.53 31.5 153.757 32.5234 152.507 32.5234ZM160.647 30.3984L163.491 34H165.858L162.358 29.5859L165.694 25.7188H163.452L160.647 29.0625H160.358V25.7188H158.413V34H160.358V30.3984H160.647ZM170.812 34.1641C172.976 34.1641 174.194 32.8828 174.46 31.6094L174.476 31.5234H172.655L172.64 31.5781C172.452 32.1328 171.827 32.6484 170.851 32.6484C169.585 32.6484 168.788 31.7891 168.765 30.3359H174.562V29.7109C174.562 27.2109 173.093 25.5469 170.718 25.5469C168.351 25.5469 166.827 27.2656 166.827 29.875V29.8828C166.827 32.5156 168.327 34.1641 170.812 34.1641ZM170.741 27.0703C171.772 27.0703 172.522 27.7266 172.663 29.0391H168.788C168.937 27.7656 169.718 27.0703 170.741 27.0703ZM178.937 30.2344L179.14 27.2266H181.741V34H183.694V25.7188H177.444L177.171 30.0938C177.077 31.5938 176.796 32.375 175.96 32.375C175.749 32.375 175.593 32.3438 175.515 32.3203V33.9844C175.64 34.0234 175.897 34.0781 176.257 34.0781C178.202 34.0781 178.78 32.5859 178.937 30.2344ZM187.054 36.75C188.772 36.75 189.749 36.1016 190.374 34.2812L193.358 25.7188H191.304L189.366 32.3438H189.304L187.366 25.7188H185.249L188.226 34.0078L188.101 34.3438C187.851 35.0391 187.444 35.25 186.694 35.25C186.421 35.25 186.194 35.2109 186.054 35.1797V36.6641C186.28 36.7031 186.671 36.75 187.054 36.75Z" fill="white"/>
</g>
<defs>
<filter id="filter0_d_1868_16034" x="-0.000976562" y="0" width="327" height="66" filterUnits="userSpaceOnUse" color-interpolation-filters="sRGB">
<feFlood flood-opacity="0" result="BackgroundImageFix"/>
<feColorMatrix in="SourceAlpha" type="matrix" values="0 0 0 0 0 0 0 0 0 0 0 0 0 0 0 0 0 0 127 0" result="hardAlpha"/>
<feMorphology radius="25" operator="erode" in="SourceAlpha" result="effect1_dropShadow_1868_16034"/>
<feOffset dy="10"/>
<feGaussianBlur stdDeviation="12.5"/>
<feColorMatrix type="matrix" values="0 0 0 0 0.0666667 0 0 0 0 0.0941176 0 0 0 0 0.152941 0 0 0 0.1 0"/>
<feBlend mode="normal" in2="BackgroundImageFix" result="effect1_dropShadow_1868_16034"/>
<feBlend mode="normal" in="SourceGraphic" in2="effect1_dropShadow_1868_16034" result="shape"/>
</filter>
</defs>
</svg>
