<svg width="311" height="97" viewBox="0 0 311 97" fill="none" xmlns="http://www.w3.org/2000/svg">
<path d="M26.8086 4.50781C27.7461 4.50781 28.4727 3.76953 28.4727 2.87891C28.4727 2 27.7461 1.26172 26.8086 1.26172C25.8711 1.26172 25.1445 2 25.1445 2.87891C25.1445 3.76953 25.8711 4.50781 26.8086 4.50781ZM31.707 4.50781C32.6562 4.50781 33.3711 3.76953 33.3711 2.87891C33.3711 2 32.6562 1.26172 31.707 1.26172C30.7695 1.26172 30.043 2 30.043 2.87891C30.043 3.76953 30.7695 4.50781 31.707 4.50781ZM29.2578 23.293C34.2852 23.293 37.4141 19.9297 37.4141 14.5508V14.5273C37.4141 9.16016 34.2734 5.79688 29.2578 5.79688C24.2539 5.79688 21.1016 9.14844 21.1016 14.5273V14.5508C21.1016 19.9297 24.2305 23.293 29.2578 23.293ZM29.2578 20.293C26.4805 20.293 24.7109 18.0898 24.7109 14.5508V14.5273C24.7109 10.9883 26.4922 8.79688 29.2578 8.79688C32.0352 8.79688 33.8047 11 33.8047 14.5273V14.5508C33.8047 18.0547 32.0703 20.293 29.2578 20.293ZM39.7188 23H52.7734V20.082H43.9727V20.0117L52.5391 8.38672V6.08984H39.918V9.00781H48.3203V9.07812L39.7188 20.6914V23ZM55.7227 23H59.2617V6.08984H55.7227V23ZM62.5742 23H66.1016V11.9258H66.1719L73.8359 23H76.9062V6.08984H73.3789V17.082H73.3086L65.668 6.08984H62.5742V23ZM86.2188 28.5664C87.9062 28.5664 89.1367 27.6875 89.1367 26.2578V26.2344C89.1367 24.8633 88.3047 24.0898 87.0039 23.9609L87.4492 23.2461C91.082 22.9414 93.2266 20.9609 93.2266 17.9844V17.9727C93.2266 15.3125 91.6328 13.8711 88.0938 13.168L86.3008 12.8047C84.3555 12.418 83.4883 11.7969 83.4883 10.7305V10.7188C83.4883 9.51172 84.5781 8.67969 86.3945 8.66797C88.1406 8.66797 89.3594 9.47656 89.5352 10.8008L89.5469 10.9414H92.8867L92.875 10.7188C92.7109 7.75391 90.3086 5.79688 86.3945 5.79688C82.6445 5.79688 79.9492 7.83594 79.9492 10.9297V10.9414C79.9492 13.4844 81.6367 15.0781 84.9766 15.7461L86.7578 16.0977C88.8555 16.5312 89.6875 17.1055 89.6875 18.2539V18.2656C89.6875 19.5547 88.457 20.4102 86.5 20.4102C84.5664 20.4102 83.1719 19.5898 82.9492 18.2773L82.9258 18.1484H79.5859L79.5977 18.3359C79.7734 21.2188 82 23 85.5156 23.2578L84.8008 24.3945V25.4141H85.2461C86.1133 25.4141 86.5117 25.6836 86.5117 26.1406V26.1641C86.5117 26.6094 86.0547 26.8086 85.4219 26.8086C84.9766 26.8086 84.5312 26.7383 84.25 26.6445V28.2852C84.625 28.4492 85.3984 28.5664 86.2188 28.5664ZM95.8945 23H107.098V20.082H99.4336V15.8281H106.664V13.0625H99.4336V9.00781H107.098V6.08984H95.8945V23ZM110.176 17.6211H117.77V14.6328H110.176V17.6211ZM129.754 13.0156V10.4375H121V23H124.422V13.0156H129.754ZM137.695 23.2578C141.27 23.2578 143.004 21.1367 143.402 19.2852L143.426 19.1562H140.285L140.262 19.2266C140.027 19.9297 139.172 20.7031 137.766 20.7031C136.02 20.7031 134.93 19.5312 134.883 17.5273H143.531V16.4727C143.531 12.6758 141.234 10.1797 137.555 10.1797C133.863 10.1797 131.508 12.7344 131.508 16.7305V16.7422C131.508 20.7617 133.84 23.2578 137.695 23.2578ZM137.613 12.7344C139.02 12.7344 140.039 13.6367 140.25 15.3711H134.93C135.152 13.6719 136.195 12.7344 137.613 12.7344ZM155.09 17.7266L159.016 23H160.305V26.3398H163.387V20.3633H161.137L158.055 16.2617L162.836 10.4375H158.945L155.09 15.3711H154.68V10.4375H151.258V23H154.68V17.7266H155.09ZM170.73 23.2578C174.527 23.2578 176.953 20.8203 176.953 16.7188V16.6953C176.953 12.6289 174.492 10.1797 170.73 10.1797C166.969 10.1797 164.508 12.6523 164.508 16.6953V16.7188C164.508 20.8086 166.922 23.2578 170.73 23.2578ZM170.742 20.5742C169.055 20.5742 167.988 19.1797 167.988 16.7188V16.6953C167.988 14.2695 169.078 12.8633 170.73 12.8633C172.395 12.8633 173.473 14.2695 173.473 16.6953V16.7188C173.473 19.168 172.418 20.5742 170.742 20.5742ZM179.422 23H196.66V10.4375H193.238V20.375H189.746V10.4375H186.324V20.375H182.844V10.4375H179.422V23ZM208.699 17.7266L212.625 23H216.738L211.664 16.2617L216.445 10.4375H212.555L208.699 15.3711H208.289V10.4375H204.867V23H208.289V17.7266H208.699ZM224.023 23.2578C227.598 23.2578 229.332 21.1367 229.73 19.2852L229.754 19.1562H226.613L226.59 19.2266C226.355 19.9297 225.5 20.7031 224.094 20.7031C222.348 20.7031 221.258 19.5312 221.211 17.5273H229.859V16.4727C229.859 12.6758 227.562 10.1797 223.883 10.1797C220.191 10.1797 217.836 12.7344 217.836 16.7305V16.7422C217.836 20.7617 220.168 23.2578 224.023 23.2578ZM223.941 12.7344C225.348 12.7344 226.367 13.6367 226.578 15.3711H221.258C221.48 13.6719 222.523 12.7344 223.941 12.7344ZM236.547 17.1758L236.805 13.0273H240.262V23H243.684V10.4375H233.863L233.488 16.8945C233.359 19.1445 232.949 20.1641 231.73 20.1641C231.414 20.1641 231.18 20.1289 231.039 20.0938V22.9648C231.238 23.0234 231.684 23.1172 232.316 23.1172C235.398 23.1172 236.324 20.8086 236.547 17.1758ZM248.777 26.3398V23H257.227V26.3398H260.344V20.375H258.469V10.4375H248.414L248.004 16.7539C247.887 18.4531 247.535 19.8594 246.621 20.375H245.66V26.3398H248.777ZM255.047 20.375H250.078V20.3047C250.664 19.4492 250.934 18.3242 251.016 16.9766L251.297 13.0625H255.047V20.375ZM264.137 8.82031C265.168 8.82031 265.965 8.01172 265.965 7.03906C265.965 6.06641 265.168 5.25781 264.137 5.25781C263.117 5.25781 262.309 6.06641 262.309 7.03906C262.309 8.01172 263.117 8.82031 264.137 8.82031ZM262.426 23H265.848V10.4375H262.426V23ZM279.285 26.3398H282.379V20.4219H280.492V10.4375H277.07V15.2656H272.266V10.4375H268.844V23H272.266V17.8555H277.07V23H279.285V26.3398ZM285.504 17.3164H288.457L288.738 6.08984H285.223L285.504 17.3164ZM286.98 23.1406C288.047 23.1406 288.891 22.332 288.891 21.3008C288.891 20.2695 288.047 19.4609 286.98 19.4609C285.914 19.4609 285.07 20.2695 285.07 21.3008C285.07 22.332 285.914 23.1406 286.98 23.1406Z" fill="#111827"/>
<path d="M30.1279 69H31.6592V60.4551H34.6738V59.1357H27.1064V60.4551H30.1279V69ZM36.9375 60.7012C37.4229 60.7012 37.7988 60.3184 37.7988 59.8535C37.7988 59.3818 37.4229 58.999 36.9375 58.999C36.459 58.999 36.0762 59.3818 36.0762 59.8535C36.0762 60.3184 36.459 60.7012 36.9375 60.7012ZM36.1992 69H37.6758V61.8086H36.1992V69ZM39.8232 71.3926H41.2998V67.79H41.334C41.7578 68.624 42.585 69.1436 43.6035 69.1436C45.4082 69.1436 46.5908 67.7012 46.5908 65.4111V65.4043C46.5908 63.1074 45.415 61.6719 43.583 61.6719C42.5576 61.6719 41.7646 62.1914 41.334 63.0459H41.2998V61.8086H39.8232V71.3926ZM43.2002 67.8721C42.0859 67.8721 41.293 66.9014 41.293 65.4111V65.4043C41.293 63.9072 42.0791 62.9365 43.2002 62.9365C44.3623 62.9365 45.0869 63.873 45.0869 65.4043V65.4111C45.0869 66.9287 44.3623 67.8721 43.2002 67.8721ZM50.0986 65.7939L52.7441 69H54.5693L51.418 65.1855L54.4463 61.8086H52.7031L50.0986 64.7754H49.8389V61.8086H48.3623V69H49.8389V65.7939H50.0986ZM58.918 69.1436C60.6611 69.1436 61.7754 68.1045 62.001 66.9629L62.0215 66.8877H60.6133L60.5928 66.9424C60.4082 67.4824 59.8271 67.9336 58.9521 67.9336C57.7764 67.9336 57.0312 67.1406 57.0039 65.7803H62.0967V65.2812C62.0967 63.1211 60.8594 61.6719 58.8428 61.6719C56.8262 61.6719 55.5273 63.1758 55.5273 65.4248V65.4316C55.5273 67.7012 56.8057 69.1436 58.918 69.1436ZM58.8496 62.8818C59.8135 62.8818 60.5176 63.4902 60.6338 64.7344H57.0244C57.1611 63.5312 57.8926 62.8818 58.8496 62.8818ZM65.8438 65.7734L66.042 62.9844H68.5234V69H70V61.8086H64.7432L64.4834 65.6982C64.3945 67.0039 64.1416 67.749 63.3965 67.749C63.2119 67.749 63.082 67.7217 63.0137 67.7012V68.9932C63.1162 69.0273 63.3213 69.0684 63.6016 69.0684C65.2148 69.0684 65.7002 67.79 65.8438 65.7734ZM72.9404 71.3994C74.3486 71.3994 75.1006 70.8252 75.6338 69.335L78.3135 61.8086H76.7549L74.9434 67.6602H74.8955L73.084 61.8086H71.4844L74.1025 69.0068L73.9795 69.3486C73.7334 70.0459 73.3506 70.2305 72.6533 70.2305C72.4551 70.2305 72.2842 70.2031 72.168 70.1758V71.3311C72.3457 71.3652 72.6533 71.3994 72.9404 71.3994ZM86.2314 69.1436C88.2891 69.1436 89.6426 67.7217 89.6426 65.4043V65.3906C89.6426 63.0869 88.2754 61.6719 86.2314 61.6719C84.1875 61.6719 82.8203 63.0938 82.8203 65.3906V65.4043C82.8203 67.7148 84.167 69.1436 86.2314 69.1436ZM86.2383 67.9062C85.083 67.9062 84.3311 66.9971 84.3311 65.4043V65.3906C84.3311 63.8184 85.0898 62.9092 86.2314 62.9092C87.3799 62.9092 88.1387 63.8184 88.1387 65.3906V65.4043C88.1387 66.9902 87.3936 67.9062 86.2383 67.9062ZM97.3682 70.9482H98.708V67.8311H97.6006V61.8086H96.124V64.707H92.8838V61.8086H91.4072V69H92.8838V65.876H96.124V69H97.3682V70.9482ZM102.318 69.1299C103.275 69.1299 104.103 68.6377 104.52 67.8652H104.554V69H106.03V64.0439C106.03 62.6016 104.916 61.6719 103.159 61.6719C101.389 61.6719 100.315 62.6221 100.213 63.8594L100.206 63.9346H101.601L101.614 63.873C101.737 63.2988 102.264 62.8955 103.118 62.8955C104.034 62.8955 104.554 63.374 104.554 64.167V64.707L102.592 64.8232C100.89 64.9258 99.9189 65.6914 99.9189 66.9424V66.9561C99.9189 68.248 100.883 69.1299 102.318 69.1299ZM101.409 66.9219V66.9082C101.409 66.2998 101.901 65.9102 102.79 65.8555L104.554 65.7461V66.3066C104.554 67.2432 103.761 67.9473 102.722 67.9473C101.929 67.9473 101.409 67.5508 101.409 66.9219ZM111.302 61.0225C112.724 61.0225 113.578 60.168 113.578 58.9854V58.9443H112.409V58.9922C112.409 59.5869 112.006 60.0928 111.309 60.0928C110.584 60.0928 110.201 59.5869 110.201 58.9922V58.9443H109.039V58.9854C109.039 60.168 109.894 61.0225 111.302 61.0225ZM108.089 69H109.545L112.847 63.9482H112.908V69H114.378V61.8086H112.922L109.62 66.8398H109.552V61.8086H108.089V69ZM117.243 69.1025C117.742 69.1025 118.139 68.7061 118.139 68.207C118.139 67.7012 117.742 67.3115 117.243 67.3115C116.737 67.3115 116.341 67.7012 116.341 68.207C116.341 68.7061 116.737 69.1025 117.243 69.1025ZM124.43 69V64.5771H124.812L128.743 69H129.591V70.9482H130.985V67.6807H129.543L126.098 63.832L130.315 59.1357H128.49L124.812 63.374H124.43V59.1357H122.898V69H124.43ZM134.773 69.1299C135.73 69.1299 136.558 68.6377 136.975 67.8652H137.009V69H138.485V64.0439C138.485 62.6016 137.371 61.6719 135.614 61.6719C133.844 61.6719 132.771 62.6221 132.668 63.8594L132.661 63.9346H134.056L134.069 63.873C134.192 63.2988 134.719 62.8955 135.573 62.8955C136.489 62.8955 137.009 63.374 137.009 64.167V64.707L135.047 64.8232C133.345 64.9258 132.374 65.6914 132.374 66.9424V66.9561C132.374 68.248 133.338 69.1299 134.773 69.1299ZM133.864 66.9219V66.9082C133.864 66.2998 134.356 65.9102 135.245 65.8555L137.009 65.7461V66.3066C137.009 67.2432 136.216 67.9473 135.177 67.9473C134.384 67.9473 133.864 67.5508 133.864 66.9219ZM143.135 69.1436C144.898 69.1436 146.067 68.248 146.067 66.9082V66.8945C146.067 66.0537 145.548 65.4795 144.598 65.2881V65.2334C145.37 65.0557 145.869 64.4473 145.869 63.6748V63.6611C145.869 62.4307 144.857 61.6719 143.203 61.6719C141.583 61.6719 140.523 62.4375 140.353 63.7158L140.346 63.7705H141.754L141.761 63.7227C141.87 63.1758 142.41 62.8408 143.183 62.8408C143.962 62.8408 144.427 63.2031 144.427 63.8184V63.832C144.427 64.4746 143.982 64.8027 143.114 64.8027H142.082V65.876H143.121C144.119 65.876 144.598 66.2041 144.598 66.8945V66.9082C144.598 67.5645 144.037 67.9678 143.128 67.9678C142.314 67.9678 141.781 67.6533 141.617 67.0723L141.597 67.0039H140.147L140.154 67.0654C140.298 68.3369 141.453 69.1436 143.135 69.1436ZM148.666 60.7012C149.151 60.7012 149.527 60.3184 149.527 59.8535C149.527 59.3818 149.151 58.999 148.666 58.999C148.188 58.999 147.805 59.3818 147.805 59.8535C147.805 60.3184 148.188 60.7012 148.666 60.7012ZM147.928 69H149.404V61.8086H147.928V69ZM151.552 71.3926H153.028V67.79H153.062C153.486 68.624 154.313 69.1436 155.332 69.1436C157.137 69.1436 158.319 67.7012 158.319 65.4111V65.4043C158.319 63.1074 157.144 61.6719 155.312 61.6719C154.286 61.6719 153.493 62.1914 153.062 63.0459H153.028V61.8086H151.552V71.3926ZM154.929 67.8721C153.814 67.8721 153.021 66.9014 153.021 65.4111V65.4043C153.021 63.9072 153.808 62.9365 154.929 62.9365C156.091 62.9365 156.815 63.873 156.815 65.4043V65.4111C156.815 66.9287 156.091 67.8721 154.929 67.8721ZM168.903 61.8086H162.922V62.9844H165.171V69H166.654V62.9844H168.903V61.8086ZM171.283 60.7012C171.769 60.7012 172.145 60.3184 172.145 59.8535C172.145 59.3818 171.769 58.999 171.283 58.999C170.805 58.999 170.422 59.3818 170.422 59.8535C170.422 60.3184 170.805 60.7012 171.283 60.7012ZM170.545 69H172.021V61.8086H170.545V69ZM174.169 71.3926H175.646V67.79H175.68C176.104 68.624 176.931 69.1436 177.949 69.1436C179.754 69.1436 180.937 67.7012 180.937 65.4111V65.4043C180.937 63.1074 179.761 61.6719 177.929 61.6719C176.903 61.6719 176.11 62.1914 175.68 63.0459H175.646V61.8086H174.169V71.3926ZM177.546 67.8721C176.432 67.8721 175.639 66.9014 175.639 65.4111V65.4043C175.639 63.9072 176.425 62.9365 177.546 62.9365C178.708 62.9365 179.433 63.873 179.433 65.4043V65.4111C179.433 66.9287 178.708 67.8721 177.546 67.8721ZM184.444 65.7939L187.09 69H188.915L185.764 65.1855L188.792 61.8086H187.049L184.444 64.7754H184.185V61.8086H182.708V69H184.185V65.7939H184.444ZM193.264 69.1436C195.007 69.1436 196.121 68.1045 196.347 66.9629L196.367 66.8877H194.959L194.938 66.9424C194.754 67.4824 194.173 67.9336 193.298 67.9336C192.122 67.9336 191.377 67.1406 191.35 65.7803H196.442V65.2812C196.442 63.1211 195.205 61.6719 193.188 61.6719C191.172 61.6719 189.873 63.1758 189.873 65.4248V65.4316C189.873 67.7012 191.151 69.1436 193.264 69.1436ZM193.195 62.8818C194.159 62.8818 194.863 63.4902 194.979 64.7344H191.37C191.507 63.5312 192.238 62.8818 193.195 62.8818ZM200.189 65.7734L200.388 62.9844H202.869V69H204.346V61.8086H199.089L198.829 65.6982C198.74 67.0039 198.487 67.749 197.742 67.749C197.558 67.749 197.428 67.7217 197.359 67.7012V68.9932C197.462 69.0273 197.667 69.0684 197.947 69.0684C199.561 69.0684 200.046 67.79 200.189 65.7734ZM210.486 70.9482V69H215.791V70.9482H217.151V67.8174H216.037V61.8086H210.794L210.534 65.6641C210.466 66.6348 210.227 67.4893 209.7 67.8174H209.119V70.9482H210.486ZM214.554 67.8174H211.286V67.7832C211.635 67.3115 211.812 66.5869 211.867 65.7256L212.065 62.9912H214.554V67.8174ZM221.719 69.1436C223.462 69.1436 224.576 68.1045 224.802 66.9629L224.822 66.8877H223.414L223.394 66.9424C223.209 67.4824 222.628 67.9336 221.753 67.9336C220.577 67.9336 219.832 67.1406 219.805 65.7803H224.897V65.2812C224.897 63.1211 223.66 61.6719 221.644 61.6719C219.627 61.6719 218.328 63.1758 218.328 65.4248V65.4316C218.328 67.7012 219.606 69.1436 221.719 69.1436ZM221.65 62.8818C222.614 62.8818 223.318 63.4902 223.435 64.7344H219.825C219.962 63.5312 220.693 62.8818 221.65 62.8818ZM231.749 65.7939L234.395 69H235.126V70.9482H236.466V67.8105H235.229L233.068 65.1855L236.097 61.8086H234.354L231.749 64.7754H231.489V61.8086H230.013V69H231.489V65.7939H231.749ZM240.021 69.1299C240.979 69.1299 241.806 68.6377 242.223 67.8652H242.257V69H243.733V64.0439C243.733 62.6016 242.619 61.6719 240.862 61.6719C239.092 61.6719 238.019 62.6221 237.916 63.8594L237.909 63.9346H239.304L239.317 63.873C239.44 63.2988 239.967 62.8955 240.821 62.8955C241.737 62.8955 242.257 63.374 242.257 64.167V64.707L240.295 64.8232C238.593 64.9258 237.622 65.6914 237.622 66.9424V66.9561C237.622 68.248 238.586 69.1299 240.021 69.1299ZM239.112 66.9219V66.9082C239.112 66.2998 239.604 65.9102 240.493 65.8555L242.257 65.7461V66.3066C242.257 67.2432 241.464 67.9473 240.425 67.9473C239.632 67.9473 239.112 67.5508 239.112 66.9219ZM248.027 65.7734L248.226 62.9844H250.707V69H252.184V61.8086H246.927L246.667 65.6982C246.578 67.0039 246.325 67.749 245.58 67.749C245.396 67.749 245.266 67.7217 245.197 67.7012V68.9932C245.3 69.0273 245.505 69.0684 245.785 69.0684C247.398 69.0684 247.884 67.79 248.027 65.7734ZM256.389 69.1299C257.346 69.1299 258.173 68.6377 258.59 67.8652H258.624V69H260.101V64.0439C260.101 62.6016 258.986 61.6719 257.229 61.6719C255.459 61.6719 254.386 62.6221 254.283 63.8594L254.276 63.9346H255.671L255.685 63.873C255.808 63.2988 256.334 62.8955 257.188 62.8955C258.104 62.8955 258.624 63.374 258.624 64.167V64.707L256.662 64.8232C254.96 64.9258 253.989 65.6914 253.989 66.9424V66.9561C253.989 68.248 254.953 69.1299 256.389 69.1299ZM255.479 66.9219V66.9082C255.479 66.2998 255.972 65.9102 256.86 65.8555L258.624 65.7461V66.3066C258.624 67.2432 257.831 67.9473 256.792 67.9473C255.999 67.9473 255.479 67.5508 255.479 66.9219ZM261.626 66.0811H262.419V69H263.896V66.0811H265.317V65.1514H263.896V62.9844H267.184V61.8086H262.419V65.1514H261.626V66.0811ZM271.033 69.1299C271.99 69.1299 272.817 68.6377 273.234 67.8652H273.269V69H274.745V64.0439C274.745 62.6016 273.631 61.6719 271.874 61.6719C270.104 61.6719 269.03 62.6221 268.928 63.8594L268.921 63.9346H270.315L270.329 63.873C270.452 63.2988 270.979 62.8955 271.833 62.8955C272.749 62.8955 273.269 63.374 273.269 64.167V64.707L271.307 64.8232C269.604 64.9258 268.634 65.6914 268.634 66.9424V66.9561C268.634 68.248 269.598 69.1299 271.033 69.1299ZM270.124 66.9219V66.9082C270.124 66.2998 270.616 65.9102 271.505 65.8555L273.269 65.7461V66.3066C273.269 67.2432 272.476 67.9473 271.437 67.9473C270.644 67.9473 270.124 67.5508 270.124 66.9219ZM281.521 69H282.997V61.8086H281.521V64.707H278.28V61.8086H276.804V69H278.28V65.876H281.521V69ZM89.5244 93.3789H90.96V91.0957C93.2295 91.0547 94.7402 89.6328 94.7402 87.4111V87.3975C94.7402 85.1689 93.2363 83.7607 90.96 83.7197V81.4775H89.5244V83.7197C87.2412 83.7539 85.7373 85.1758 85.7373 87.3975V87.4111C85.7373 89.6465 87.2344 91.0479 89.5244 91.0957V93.3789ZM89.5312 89.8994C88.123 89.8584 87.2344 88.9355 87.2344 87.4111V87.3975C87.2344 85.8799 88.1299 84.9434 89.5312 84.9092V89.8994ZM90.9531 89.8994V84.9092C92.3545 84.9502 93.2432 85.873 93.2432 87.3975V87.4111C93.2432 88.9355 92.3477 89.8652 90.9531 89.8994ZM96.5117 91H97.9678L101.27 85.9482H101.331V91H102.801V83.8086H101.345L98.043 88.8398H97.9746V83.8086H96.5117V91ZM107.122 87.7734L107.32 84.9844H109.802V91H111.278V83.8086H106.021L105.762 87.6982C105.673 89.0039 105.42 89.749 104.675 89.749C104.49 89.749 104.36 89.7217 104.292 89.7012V90.9932C104.395 91.0273 104.6 91.0684 104.88 91.0684C106.493 91.0684 106.979 89.79 107.122 87.7734ZM113.371 91H116.215C117.876 91 118.949 90.0361 118.949 88.5186V88.5049C118.949 86.9941 117.876 86.0303 116.215 86.0303H114.848V83.8086H113.371V91ZM116.071 87.1992C116.905 87.1992 117.438 87.7119 117.438 88.5049V88.5186C117.438 89.3115 116.912 89.8311 116.071 89.8311H114.848V87.1992H116.071ZM122.115 91V86.0098H122.163L124.303 90.7197H125.383L127.529 86.0098H127.577V91H129.02V83.8086H127.201L124.891 89.0791H124.836L122.546 83.8086H120.68V91H122.115ZM131.905 82.7012C132.391 82.7012 132.767 82.3184 132.767 81.8535C132.767 81.3818 132.391 80.999 131.905 80.999C131.427 80.999 131.044 81.3818 131.044 81.8535C131.044 82.3184 131.427 82.7012 131.905 82.7012ZM131.167 91H132.644V83.8086H131.167V91ZM140.752 92.9482H142.092V89.8311H140.984V83.8086H139.508V86.707H136.268V83.8086H134.791V91H136.268V87.876H139.508V91H140.752V92.9482ZM146.646 91.1436C148.389 91.1436 149.503 90.1045 149.729 88.9629L149.749 88.8877H148.341L148.32 88.9424C148.136 89.4824 147.555 89.9336 146.68 89.9336C145.504 89.9336 144.759 89.1406 144.731 87.7803H149.824V87.2812C149.824 85.1211 148.587 83.6719 146.57 83.6719C144.554 83.6719 143.255 85.1758 143.255 87.4248V87.4316C143.255 89.7012 144.533 91.1436 146.646 91.1436ZM146.577 84.8818C147.541 84.8818 148.245 85.4902 148.361 86.7344H144.752C144.889 85.5312 145.62 84.8818 146.577 84.8818ZM156.676 87.7939L159.321 91H160.053V92.9482H161.393V89.8105H160.155L157.995 87.1855L161.023 83.8086H159.28L156.676 86.7754H156.416V83.8086H154.939V91H156.416V87.7939H156.676ZM165.666 91.1436C167.724 91.1436 169.077 89.7217 169.077 87.4043V87.3906C169.077 85.0869 167.71 83.6719 165.666 83.6719C163.622 83.6719 162.255 85.0938 162.255 87.3906V87.4043C162.255 89.7148 163.602 91.1436 165.666 91.1436ZM165.673 89.9062C164.518 89.9062 163.766 88.9971 163.766 87.4043V87.3906C163.766 85.8184 164.524 84.9092 165.666 84.9092C166.814 84.9092 167.573 85.8184 167.573 87.3906V87.4043C167.573 88.9902 166.828 89.9062 165.673 89.9062ZM172.817 87.7734L173.016 84.9844H175.497V91H176.974V83.8086H171.717L171.457 87.6982C171.368 89.0039 171.115 89.749 170.37 89.749C170.186 89.749 170.056 89.7217 169.987 89.7012V90.9932C170.09 91.0273 170.295 91.0684 170.575 91.0684C172.188 91.0684 172.674 89.79 172.817 87.7734ZM183.565 91L186.136 87.7734H186.327V91H187.776V87.7734H187.968L190.531 91H192.356L189.287 87.1924L192.24 83.8086H190.497L187.968 86.7959H187.776V83.8086H186.327V86.7959H186.136L183.606 83.8086H181.856L184.81 87.1992L181.747 91H183.565ZM196.616 91.1436C198.359 91.1436 199.474 90.1045 199.699 88.9629L199.72 88.8877H198.312L198.291 88.9424C198.106 89.4824 197.525 89.9336 196.65 89.9336C195.475 89.9336 194.729 89.1406 194.702 87.7803H199.795V87.2812C199.795 85.1211 198.558 83.6719 196.541 83.6719C194.524 83.6719 193.226 85.1758 193.226 87.4248V87.4316C193.226 89.7012 194.504 91.1436 196.616 91.1436ZM196.548 84.8818C197.512 84.8818 198.216 85.4902 198.332 86.7344H194.723C194.859 85.5312 195.591 84.8818 196.548 84.8818ZM206.775 83.8086H200.794V84.9844H203.043V91H204.526V84.9844H206.775V83.8086ZM210.092 87.7939L212.737 91H214.562L211.411 87.1855L214.439 83.8086H212.696L210.092 86.7754H209.832V83.8086H208.355V91H209.832V87.7939H210.092ZM216.819 82.7012C217.305 82.7012 217.681 82.3184 217.681 81.8535C217.681 81.3818 217.305 80.999 216.819 80.999C216.341 80.999 215.958 81.3818 215.958 81.8535C215.958 82.3184 216.341 82.7012 216.819 82.7012ZM216.081 91H217.558V83.8086H216.081V91ZM222.296 91.1436C224.06 91.1436 225.229 90.248 225.229 88.9082V88.8945C225.229 88.0537 224.709 87.4795 223.759 87.2881V87.2334C224.531 87.0557 225.03 86.4473 225.03 85.6748V85.6611C225.03 84.4307 224.019 83.6719 222.364 83.6719C220.744 83.6719 219.685 84.4375 219.514 85.7158L219.507 85.7705H220.915L220.922 85.7227C221.031 85.1758 221.571 84.8408 222.344 84.8408C223.123 84.8408 223.588 85.2031 223.588 85.8184V85.832C223.588 86.4746 223.144 86.8027 222.275 86.8027H221.243V87.876H222.282C223.28 87.876 223.759 88.2041 223.759 88.8945V88.9082C223.759 89.5645 223.198 89.9678 222.289 89.9678C221.476 89.9678 220.942 89.6533 220.778 89.0723L220.758 89.0039H219.309L219.315 89.0654C219.459 90.3369 220.614 91.1436 222.296 91.1436Z" fill="#6B7280"/>
</svg>
