<svg width="327" height="58" viewBox="0 0 327 58" fill="none" xmlns="http://www.w3.org/2000/svg">
<path d="M0.272461 52H1.74902L2.88965 48.7734H7.42871L8.56934 52H10.0459L5.8584 40.7266H4.46777L0.272461 52ZM5.14746 42.4141H5.17871L7.00684 47.5781H3.31934L5.14746 42.4141ZM13.4521 48.25L16.6943 52H18.4131L14.6787 47.7188L18.3037 43.875H16.6553L13.4521 47.3125H13.1396V43.875H11.7803V52H13.1396V48.25H13.4521ZM21.7178 48.25L24.96 52H26.6787L22.9443 47.7188L26.5693 43.875H24.9209L21.7178 47.3125H21.4053V43.875H20.0459V52H21.4053V48.25H21.7178ZM30.46 52.1562C31.5459 52.1562 32.5225 51.5703 32.999 50.6797H33.0303V52H34.3896V46.3828C34.3896 44.7578 33.1865 43.7188 31.2646 43.7188C29.3506 43.7188 28.1865 44.7969 28.0693 46.1328L28.0615 46.2188H29.374L29.3896 46.1484C29.5459 45.4219 30.2021 44.9219 31.249 44.9219C32.3818 44.9219 33.0303 45.5234 33.0303 46.5156V47.1953L30.7021 47.3281C28.835 47.4375 27.7568 48.3047 27.7568 49.6875V49.7031C27.7568 51.1797 28.8428 52.1562 30.46 52.1562ZM29.1475 49.7031V49.6875C29.1475 48.9297 29.7725 48.4453 30.8584 48.3828L33.0303 48.25V48.9141C33.0303 50.0938 32.0459 50.9766 30.7646 50.9766C29.7881 50.9766 29.1475 50.4844 29.1475 49.7031ZM37.5537 54.7344C39.0225 54.7344 39.7334 54.0625 40.3115 52.5078L43.4834 43.875H42.0537L39.8037 50.6406H39.7725L37.5303 43.875H36.0771L39.0928 52.0078L38.9287 52.4688C38.6006 53.3906 38.124 53.6094 37.2646 53.6094C37.1006 53.6094 36.9443 53.5859 36.8271 53.5625V54.6719C36.999 54.7031 37.2881 54.7344 37.5537 54.7344ZM50.5381 52H51.8975V43.875H50.5381V47.2266H46.5615V43.875H45.2021V52H46.5615V48.3516H50.5381V52ZM60.2568 43.875H53.6631V45H56.2803V52H57.6396V45H60.2568V43.875ZM63.6865 48.25L66.9287 52H67.7568V54.2266H68.9912V50.8594H67.6553L64.9131 47.7188L68.5381 43.875H66.8896L63.6865 47.3125H63.374V43.875H62.0146V52H63.374V48.25H63.6865ZM73.0068 52.1562C74.0928 52.1562 75.0693 51.5703 75.5459 50.6797H75.5771V52H76.9365V46.3828C76.9365 44.7578 75.7334 43.7188 73.8115 43.7188C71.8975 43.7188 70.7334 44.7969 70.6162 46.1328L70.6084 46.2188H71.9209L71.9365 46.1484C72.0928 45.4219 72.749 44.9219 73.7959 44.9219C74.9287 44.9219 75.5771 45.5234 75.5771 46.5156V47.1953L73.249 47.3281C71.3818 47.4375 70.3037 48.3047 70.3037 49.6875V49.7031C70.3037 51.1797 71.3896 52.1562 73.0068 52.1562ZM71.6943 49.7031V49.6875C71.6943 48.9297 72.3193 48.4453 73.4053 48.3828L75.5771 48.25V48.9141C75.5771 50.0938 74.5928 50.9766 73.3115 50.9766C72.335 50.9766 71.6943 50.4844 71.6943 49.7031ZM84.7646 48.25L88.0068 52H89.7256L85.9912 47.7188L89.6162 43.875H87.9678L84.7646 47.3125H84.4521V43.875H83.0928V52H84.4521V48.25H84.7646ZM92.1318 42.5C92.6084 42.5 92.9834 42.1172 92.9834 41.6484C92.9834 41.1719 92.6084 40.7969 92.1318 40.7969C91.6631 40.7969 91.2803 41.1719 91.2803 41.6484C91.2803 42.1172 91.6631 42.5 92.1318 42.5ZM91.4521 52H92.8115V43.875H91.4521V52ZM95.3193 54.7344H96.6787V50.6406H96.71C97.2178 51.5781 98.1631 52.1562 99.3115 52.1562C101.351 52.1562 102.741 50.5078 102.741 47.9453V47.9375C102.741 45.375 101.366 43.7188 99.2881 43.7188C98.124 43.7188 97.2178 44.3047 96.71 45.25H96.6787V43.875H95.3193V54.7344ZM99.0225 50.9531C97.6553 50.9531 96.6709 49.7578 96.6709 47.9453V47.9375C96.6709 46.1172 97.6475 44.9219 99.0225 44.9219C100.46 44.9219 101.351 46.0703 101.351 47.9375V47.9453C101.351 49.7969 100.46 50.9531 99.0225 50.9531ZM105.538 42.5C106.015 42.5 106.39 42.1172 106.39 41.6484C106.39 41.1719 106.015 40.7969 105.538 40.7969C105.069 40.7969 104.687 41.1719 104.687 41.6484C104.687 42.1172 105.069 42.5 105.538 42.5ZM104.858 52H106.218V43.875H104.858V52ZM115.444 54.2266H116.679V50.875H115.413V43.875H114.054V47.2266H110.077V43.875H108.718V52H110.077V48.3516H114.054V52H115.444V54.2266ZM119.163 42.5C119.64 42.5 120.015 42.1172 120.015 41.6484C120.015 41.1719 119.64 40.7969 119.163 40.7969C118.694 40.7969 118.312 41.1719 118.312 41.6484C118.312 42.1172 118.694 42.5 119.163 42.5ZM118.483 52H119.843V43.875H118.483V52ZM125.054 52.1562C126.952 52.1562 128.226 51.1406 128.226 49.6328V49.6172C128.226 48.6797 127.647 48.0312 126.601 47.8047V47.7422C127.429 47.5547 127.999 46.8281 127.999 45.9609V45.9453C127.999 44.5703 126.913 43.7188 125.14 43.7188C123.452 43.7188 122.272 44.5625 122.085 45.875L122.077 45.9297H123.397L123.405 45.8906C123.53 45.2578 124.21 44.8438 125.14 44.8438C126.101 44.8438 126.671 45.2969 126.671 46.0547V46.0703C126.671 46.875 126.132 47.2812 125.054 47.2812H123.835V48.4062H125.054C126.296 48.4062 126.89 48.8125 126.89 49.6797V49.6953C126.89 50.5156 126.179 51.0312 125.054 51.0312C124.085 51.0312 123.437 50.6484 123.241 49.9688L123.218 49.8906H121.843L121.851 49.9531C122.015 51.2812 123.288 52.1562 125.054 52.1562Z" fill="#6B7280"/>
<path d="M9.01074 23.293C13.1123 23.293 16.0771 20.7266 16.3936 17.1289L16.4053 17H12.96L12.9365 17.1172C12.4912 19.1211 11.0615 20.293 9.02246 20.293C6.31543 20.293 4.58105 18.0898 4.58105 14.5273V14.5156C4.58105 10.9766 6.30371 8.79688 9.01074 8.79688C11.1201 8.79688 12.5029 10.0156 12.9014 11.8789L12.9482 12.0781H16.3936L16.3818 11.9727C16.0654 8.38672 13.124 5.79688 9.01074 5.79688C4.07715 5.79688 0.959961 9.07812 0.959961 14.5273V14.5391C0.959961 19.9883 4.06543 23.293 9.01074 23.293ZM24.3584 10.1797C20.7725 10.1797 19.0381 12.2891 18.6514 14.1406L18.6162 14.2812H21.7568L21.7803 14.2109C22.0264 13.4961 22.8818 12.7344 24.2881 12.7344C26.0225 12.7344 27.1123 13.9062 27.1592 15.8984H18.5107V16.9531C18.5107 20.75 20.8193 23.2578 24.499 23.2578C28.1787 23.2578 30.5342 20.6914 30.5342 16.707V16.6953C30.5342 12.6758 28.2021 10.1797 24.3584 10.1797ZM24.4404 20.7031C23.0225 20.7031 22.0029 19.8008 21.792 18.0547H27.1123C26.8896 19.7656 25.8467 20.7031 24.4404 20.7031ZM37.2217 17.1758L37.4795 13.0273H40.9365V23H44.3584V10.4375H34.5381L34.1631 16.8945C34.0342 19.1445 33.624 20.1641 32.4053 20.1641C32.0889 20.1641 31.8545 20.1289 31.7139 20.0938V22.9648C31.9131 23.0234 32.3584 23.1172 32.9912 23.1172C36.0732 23.1172 36.999 20.8086 37.2217 17.1758ZM53.0264 23.2578C56.6006 23.2578 58.335 21.1367 58.7334 19.2852L58.7568 19.1562H55.6162L55.5928 19.2266C55.3584 19.9297 54.5029 20.7031 53.0967 20.7031C51.3506 20.7031 50.2607 19.5312 50.2139 17.5273H58.8623V16.4727C58.8623 12.6758 56.5654 10.1797 52.8857 10.1797C49.1943 10.1797 46.8389 12.7344 46.8389 16.7305V16.7422C46.8389 20.7617 49.1709 23.2578 53.0264 23.2578ZM52.9443 12.7344C54.3506 12.7344 55.3701 13.6367 55.5811 15.3711H50.2607C50.4834 13.6719 51.5264 12.7344 52.9443 12.7344ZM64.5537 23V14.5977H64.6357L67.8701 22.2969H70.2373L73.4834 14.5977H73.5654V23H76.7881V10.4375H72.3936L69.124 18.6406H69.042L65.7725 10.4375H61.3311V23H64.5537Z" fill="#111827"/>
</svg>
