<svg width="311" height="141" viewBox="0 0 311 141" fill="none" xmlns="http://www.w3.org/2000/svg">
<path d="M26.8086 4.50781C27.7461 4.50781 28.4727 3.76953 28.4727 2.87891C28.4727 2 27.7461 1.26172 26.8086 1.26172C25.8711 1.26172 25.1445 2 25.1445 2.87891C25.1445 3.76953 25.8711 4.50781 26.8086 4.50781ZM31.707 4.50781C32.6562 4.50781 33.3711 3.76953 33.3711 2.87891C33.3711 2 32.6562 1.26172 31.707 1.26172C30.7695 1.26172 30.043 2 30.043 2.87891C30.043 3.76953 30.7695 4.50781 31.707 4.50781ZM29.2578 23.293C34.2852 23.293 37.4141 19.9297 37.4141 14.5508V14.5273C37.4141 9.16016 34.2734 5.79688 29.2578 5.79688C24.2539 5.79688 21.1016 9.14844 21.1016 14.5273V14.5508C21.1016 19.9297 24.2305 23.293 29.2578 23.293ZM29.2578 20.293C26.4805 20.293 24.7109 18.0898 24.7109 14.5508V14.5273C24.7109 10.9883 26.4922 8.79688 29.2578 8.79688C32.0352 8.79688 33.8047 11 33.8047 14.5273V14.5508C33.8047 18.0547 32.0703 20.293 29.2578 20.293ZM39.7188 23H52.7734V20.082H43.9727V20.0117L52.5391 8.38672V6.08984H39.918V9.00781H48.3203V9.07812L39.7188 20.6914V23ZM55.7227 23H59.2617V6.08984H55.7227V23ZM62.5742 23H66.1016V11.9258H66.1719L73.8359 23H76.9062V6.08984H73.3789V17.082H73.3086L65.668 6.08984H62.5742V23ZM86.2188 28.5664C87.9062 28.5664 89.1367 27.6875 89.1367 26.2578V26.2344C89.1367 24.8633 88.3047 24.0898 87.0039 23.9609L87.4492 23.2461C91.082 22.9414 93.2266 20.9609 93.2266 17.9844V17.9727C93.2266 15.3125 91.6328 13.8711 88.0938 13.168L86.3008 12.8047C84.3555 12.418 83.4883 11.7969 83.4883 10.7305V10.7188C83.4883 9.51172 84.5781 8.67969 86.3945 8.66797C88.1406 8.66797 89.3594 9.47656 89.5352 10.8008L89.5469 10.9414H92.8867L92.875 10.7188C92.7109 7.75391 90.3086 5.79688 86.3945 5.79688C82.6445 5.79688 79.9492 7.83594 79.9492 10.9297V10.9414C79.9492 13.4844 81.6367 15.0781 84.9766 15.7461L86.7578 16.0977C88.8555 16.5312 89.6875 17.1055 89.6875 18.2539V18.2656C89.6875 19.5547 88.457 20.4102 86.5 20.4102C84.5664 20.4102 83.1719 19.5898 82.9492 18.2773L82.9258 18.1484H79.5859L79.5977 18.3359C79.7734 21.2188 82 23 85.5156 23.2578L84.8008 24.3945V25.4141H85.2461C86.1133 25.4141 86.5117 25.6836 86.5117 26.1406V26.1641C86.5117 26.6094 86.0547 26.8086 85.4219 26.8086C84.9766 26.8086 84.5312 26.7383 84.25 26.6445V28.2852C84.625 28.4492 85.3984 28.5664 86.2188 28.5664ZM95.8945 23H107.098V20.082H99.4336V15.8281H106.664V13.0625H99.4336V9.00781H107.098V6.08984H95.8945V23ZM110.176 17.6211H117.77V14.6328H110.176V17.6211ZM129.754 13.0156V10.4375H121V23H124.422V13.0156H129.754ZM137.695 23.2578C141.27 23.2578 143.004 21.1367 143.402 19.2852L143.426 19.1562H140.285L140.262 19.2266C140.027 19.9297 139.172 20.7031 137.766 20.7031C136.02 20.7031 134.93 19.5312 134.883 17.5273H143.531V16.4727C143.531 12.6758 141.234 10.1797 137.555 10.1797C133.863 10.1797 131.508 12.7344 131.508 16.7305V16.7422C131.508 20.7617 133.84 23.2578 137.695 23.2578ZM137.613 12.7344C139.02 12.7344 140.039 13.6367 140.25 15.3711H134.93C135.152 13.6719 136.195 12.7344 137.613 12.7344ZM155.09 17.7266L159.016 23H160.305V26.3398H163.387V20.3633H161.137L158.055 16.2617L162.836 10.4375H158.945L155.09 15.3711H154.68V10.4375H151.258V23H154.68V17.7266H155.09ZM170.73 23.2578C174.527 23.2578 176.953 20.8203 176.953 16.7188V16.6953C176.953 12.6289 174.492 10.1797 170.73 10.1797C166.969 10.1797 164.508 12.6523 164.508 16.6953V16.7188C164.508 20.8086 166.922 23.2578 170.73 23.2578ZM170.742 20.5742C169.055 20.5742 167.988 19.1797 167.988 16.7188V16.6953C167.988 14.2695 169.078 12.8633 170.73 12.8633C172.395 12.8633 173.473 14.2695 173.473 16.6953V16.7188C173.473 19.168 172.418 20.5742 170.742 20.5742ZM179.422 23H196.66V10.4375H193.238V20.375H189.746V10.4375H186.324V20.375H182.844V10.4375H179.422V23ZM208.699 17.7266L212.625 23H216.738L211.664 16.2617L216.445 10.4375H212.555L208.699 15.3711H208.289V10.4375H204.867V23H208.289V17.7266H208.699ZM224.023 23.2578C227.598 23.2578 229.332 21.1367 229.73 19.2852L229.754 19.1562H226.613L226.59 19.2266C226.355 19.9297 225.5 20.7031 224.094 20.7031C222.348 20.7031 221.258 19.5312 221.211 17.5273H229.859V16.4727C229.859 12.6758 227.562 10.1797 223.883 10.1797C220.191 10.1797 217.836 12.7344 217.836 16.7305V16.7422C217.836 20.7617 220.168 23.2578 224.023 23.2578ZM223.941 12.7344C225.348 12.7344 226.367 13.6367 226.578 15.3711H221.258C221.48 13.6719 222.523 12.7344 223.941 12.7344ZM236.547 17.1758L236.805 13.0273H240.262V23H243.684V10.4375H233.863L233.488 16.8945C233.359 19.1445 232.949 20.1641 231.73 20.1641C231.414 20.1641 231.18 20.1289 231.039 20.0938V22.9648C231.238 23.0234 231.684 23.1172 232.316 23.1172C235.398 23.1172 236.324 20.8086 236.547 17.1758ZM248.777 26.3398V23H257.227V26.3398H260.344V20.375H258.469V10.4375H248.414L248.004 16.7539C247.887 18.4531 247.535 19.8594 246.621 20.375H245.66V26.3398H248.777ZM255.047 20.375H250.078V20.3047C250.664 19.4492 250.934 18.3242 251.016 16.9766L251.297 13.0625H255.047V20.375ZM264.137 8.82031C265.168 8.82031 265.965 8.01172 265.965 7.03906C265.965 6.06641 265.168 5.25781 264.137 5.25781C263.117 5.25781 262.309 6.06641 262.309 7.03906C262.309 8.01172 263.117 8.82031 264.137 8.82031ZM262.426 23H265.848V10.4375H262.426V23ZM279.285 26.3398H282.379V20.4219H280.492V10.4375H277.07V15.2656H272.266V10.4375H268.844V23H272.266V17.8555H277.07V23H279.285V26.3398ZM285.504 17.3164H288.457L288.738 6.08984H285.223L285.504 17.3164ZM286.98 23.1406C288.047 23.1406 288.891 22.332 288.891 21.3008C288.891 20.2695 288.047 19.4609 286.98 19.4609C285.914 19.4609 285.07 20.2695 285.07 21.3008C285.07 22.332 285.914 23.1406 286.98 23.1406Z" fill="#111827"/>
<path d="M32.498 69.082H34.0156V68.125C36.709 68.043 38.4316 66.4844 38.4316 64.0508V64.0371C38.4316 61.5762 36.709 60.0244 34.0156 59.9561V59.0537H32.498V59.9561C29.8047 60.0244 28.0752 61.5762 28.0752 64.0371V64.0508C28.0752 66.4844 29.8047 68.043 32.498 68.125V69.082ZM29.6406 64.0508V64.0371C29.6406 62.3828 30.7344 61.3232 32.5049 61.2617V66.8193C30.7344 66.7441 29.6406 65.6914 29.6406 64.0508ZM34.002 61.2617C35.7793 61.3232 36.873 62.3828 36.873 64.0371V64.0508C36.873 65.6914 35.7793 66.7441 34.002 66.8193V61.2617ZM40.2783 69H41.7344L45.0361 63.9482H45.0977V69H46.5674V61.8086H45.1113L41.8096 66.8398H41.7412V61.8086H40.2783V69ZM50.8887 65.7734L51.0869 62.9844H53.5684V69H55.0449V61.8086H49.7881L49.5283 65.6982C49.4395 67.0039 49.1865 67.749 48.4414 67.749C48.2568 67.749 48.127 67.7217 48.0586 67.7012V68.9932C48.1611 69.0273 48.3662 69.0684 48.6465 69.0684C50.2598 69.0684 50.7451 67.79 50.8887 65.7734ZM57.1377 69H59.9814C61.6426 69 62.7158 68.0361 62.7158 66.5186V66.5049C62.7158 64.9941 61.6426 64.0303 59.9814 64.0303H58.6143V61.8086H57.1377V69ZM59.8379 65.1992C60.6719 65.1992 61.2051 65.7119 61.2051 66.5049V66.5186C61.2051 67.3115 60.6787 67.8311 59.8379 67.8311H58.6143V65.1992H59.8379ZM65.8818 69V64.0098H65.9297L68.0693 68.7197H69.1494L71.2959 64.0098H71.3438V69H72.7861V61.8086H70.9678L68.6572 67.0791H68.6025L66.3125 61.8086H64.4463V69H65.8818ZM75.5762 70.9482V69H80.8809V70.9482H82.2412V67.8174H81.127V61.8086H75.8838L75.624 65.6641C75.5557 66.6348 75.3164 67.4893 74.79 67.8174H74.209V70.9482H75.5762ZM79.6436 67.8174H76.376V67.7832C76.7246 67.3115 76.9023 66.5869 76.957 65.7256L77.1553 62.9912H79.6436V67.8174ZM86.8086 69.1436C88.5518 69.1436 89.666 68.1045 89.8916 66.9629L89.9121 66.8877H88.5039L88.4834 66.9424C88.2988 67.4824 87.7178 67.9336 86.8428 67.9336C85.667 67.9336 84.9219 67.1406 84.8945 65.7803H89.9873V65.2812C89.9873 63.1211 88.75 61.6719 86.7334 61.6719C84.7168 61.6719 83.418 63.1758 83.418 65.4248V65.4316C83.418 67.7012 84.6963 69.1436 86.8086 69.1436ZM86.7402 62.8818C87.7041 62.8818 88.4082 63.4902 88.5244 64.7344H84.915C85.0518 63.5312 85.7832 62.8818 86.7402 62.8818ZM91.7588 71.3926H93.2354V67.79H93.2695C93.6934 68.624 94.5205 69.1436 95.5391 69.1436C97.3438 69.1436 98.5264 67.7012 98.5264 65.4111V65.4043C98.5264 63.1074 97.3506 61.6719 95.5186 61.6719C94.4932 61.6719 93.7002 62.1914 93.2695 63.0459H93.2354V61.8086H91.7588V71.3926ZM95.1357 67.8721C94.0215 67.8721 93.2285 66.9014 93.2285 65.4111V65.4043C93.2285 63.9072 94.0146 62.9365 95.1357 62.9365C96.2979 62.9365 97.0225 63.873 97.0225 65.4043V65.4111C97.0225 66.9287 96.2979 67.8721 95.1357 67.8721ZM99.4502 70.9824H100.489L101.487 67.4824H100.011L99.4502 70.9824ZM111.675 61.8086H105.693V62.9844H107.942V69H109.426V62.9844H111.675V61.8086ZM116.188 69.1436C117.931 69.1436 119.045 68.1045 119.271 66.9629L119.291 66.8877H117.883L117.862 66.9424C117.678 67.4824 117.097 67.9336 116.222 67.9336C115.046 67.9336 114.301 67.1406 114.273 65.7803H119.366V65.2812C119.366 63.1211 118.129 61.6719 116.112 61.6719C114.096 61.6719 112.797 63.1758 112.797 65.4248V65.4316C112.797 67.7012 114.075 69.1436 116.188 69.1436ZM116.119 62.8818C117.083 62.8818 117.787 63.4902 117.903 64.7344H114.294C114.431 63.5312 115.162 62.8818 116.119 62.8818ZM123.113 65.7734L123.312 62.9844H125.793V69H127.27V61.8086H122.013L121.753 65.6982C121.664 67.0039 121.411 67.749 120.666 67.749C120.481 67.749 120.352 67.7217 120.283 67.7012V68.9932C120.386 69.0273 120.591 69.0684 120.871 69.0684C122.484 69.0684 122.97 67.79 123.113 65.7734ZM132.432 69.1436C134.175 69.1436 135.289 68.1045 135.515 66.9629L135.535 66.8877H134.127L134.106 66.9424C133.922 67.4824 133.341 67.9336 132.466 67.9336C131.29 67.9336 130.545 67.1406 130.518 65.7803H135.61V65.2812C135.61 63.1211 134.373 61.6719 132.356 61.6719C130.34 61.6719 129.041 63.1758 129.041 65.4248V65.4316C129.041 67.7012 130.319 69.1436 132.432 69.1436ZM132.363 62.8818C133.327 62.8818 134.031 63.4902 134.147 64.7344H130.538C130.675 63.5312 131.406 62.8818 132.363 62.8818ZM136.705 69H138.305L139.904 66.3545H139.932L141.524 69H143.151L140.82 65.3633L143.179 61.8086H141.545L140 64.4131H139.966L138.4 61.8086H136.739L139.084 65.4111L136.705 69ZM144.731 69H146.188L149.489 63.9482H149.551V69H151.021V61.8086H149.564L146.263 66.8398H146.194V61.8086H144.731V69ZM154.843 65.7939L157.488 69H159.313L156.162 65.1855L159.19 61.8086H157.447L154.843 64.7754H154.583V61.8086H153.106V69H154.583V65.7939H154.843ZM162.705 69.1299C163.662 69.1299 164.489 68.6377 164.906 67.8652H164.94V69H166.417V64.0439C166.417 62.6016 165.303 61.6719 163.546 61.6719C161.775 61.6719 160.702 62.6221 160.6 63.8594L160.593 63.9346H161.987L162.001 63.873C162.124 63.2988 162.65 62.8955 163.505 62.8955C164.421 62.8955 164.94 63.374 164.94 64.167V64.707L162.979 64.8232C161.276 64.9258 160.306 65.6914 160.306 66.9424V66.9561C160.306 68.248 161.27 69.1299 162.705 69.1299ZM161.796 66.9219V66.9082C161.796 66.2998 162.288 65.9102 163.177 65.8555L164.94 65.7461V66.3066C164.94 67.2432 164.147 67.9473 163.108 67.9473C162.315 67.9473 161.796 67.5508 161.796 66.9219ZM172.577 69H174.047V61.8086H171.128C169.446 61.8086 168.353 62.7383 168.353 64.2285V64.2422C168.353 65.2402 168.968 65.9854 169.966 66.2793L168.004 69H169.686L171.422 66.5322H172.577V69ZM171.203 65.3906C170.369 65.3906 169.85 64.9121 169.85 64.2354V64.2217C169.85 63.4424 170.362 62.9775 171.203 62.9775H172.577V65.3906H171.203ZM178.361 65.7734L178.56 62.9844H181.041V69H182.518V61.8086H177.261L177.001 65.6982C176.912 67.0039 176.659 67.749 175.914 67.749C175.729 67.749 175.6 67.7217 175.531 67.7012V68.9932C175.634 69.0273 175.839 69.0684 176.119 69.0684C177.732 69.0684 178.218 67.79 178.361 65.7734ZM186.723 69.1299C187.68 69.1299 188.507 68.6377 188.924 67.8652H188.958V69H190.435V64.0439C190.435 62.6016 189.32 61.6719 187.563 61.6719C185.793 61.6719 184.72 62.6221 184.617 63.8594L184.61 63.9346H186.005L186.019 63.873C186.142 63.2988 186.668 62.8955 187.522 62.8955C188.438 62.8955 188.958 63.374 188.958 64.167V64.707L186.996 64.8232C185.294 64.9258 184.323 65.6914 184.323 66.9424V66.9561C184.323 68.248 185.287 69.1299 186.723 69.1299ZM185.813 66.9219V66.9082C185.813 66.2998 186.306 65.9102 187.194 65.8555L188.958 65.7461V66.3066C188.958 67.2432 188.165 67.9473 187.126 67.9473C186.333 67.9473 185.813 67.5508 185.813 66.9219ZM192.493 71.3926H193.97V67.79H194.004C194.428 68.624 195.255 69.1436 196.273 69.1436C198.078 69.1436 199.261 67.7012 199.261 65.4111V65.4043C199.261 63.1074 198.085 61.6719 196.253 61.6719C195.228 61.6719 194.435 62.1914 194.004 63.0459H193.97V61.8086H192.493V71.3926ZM195.87 67.8721C194.756 67.8721 193.963 66.9014 193.963 65.4111V65.4043C193.963 63.9072 194.749 62.9365 195.87 62.9365C197.032 62.9365 197.757 63.873 197.757 65.4043V65.4111C197.757 66.9287 197.032 67.8721 195.87 67.8721ZM200.185 70.9824H201.224L202.222 67.4824H200.745L200.185 70.9824ZM210.03 69.1436C211.76 69.1436 212.963 68.0361 213.12 66.5938L213.127 66.5459H211.712L211.698 66.6006C211.521 67.3799 210.946 67.9062 210.037 67.9062C208.889 67.9062 208.13 66.9834 208.13 65.4111V65.4043C208.13 63.8662 208.875 62.9092 210.023 62.9092C210.987 62.9092 211.534 63.5039 211.691 64.208L211.705 64.2627H213.113L213.106 64.2148C212.983 62.8613 211.862 61.6719 210.017 61.6719C207.959 61.6719 206.619 63.1143 206.619 65.3906V65.3975C206.619 67.7012 207.932 69.1436 210.03 69.1436ZM214.796 69H216.252L219.554 63.9482H219.615V69H221.085V61.8086H219.629L216.327 66.8398H216.259V61.8086H214.796V69ZM228.64 61.8086H222.658V62.9844H224.907V69H226.391V62.9844H228.64V61.8086ZM231.956 65.7939L234.602 69H236.427L233.275 65.1855L236.304 61.8086H234.561L231.956 64.7754H231.696V61.8086H230.22V69H231.696V65.7939H231.956ZM240.796 69.1436C242.854 69.1436 244.207 67.7217 244.207 65.4043V65.3906C244.207 63.0869 242.84 61.6719 240.796 61.6719C238.752 61.6719 237.385 63.0938 237.385 65.3906V65.4043C237.385 67.7148 238.731 69.1436 240.796 69.1436ZM240.803 67.9062C239.647 67.9062 238.896 66.9971 238.896 65.4043V65.3906C238.896 63.8184 239.654 62.9092 240.796 62.9092C241.944 62.9092 242.703 63.8184 242.703 65.3906V65.4043C242.703 66.9902 241.958 67.9062 240.803 67.9062ZM247.407 69V64.0098H247.455L249.595 68.7197H250.675L252.821 64.0098H252.869V69H254.312V61.8086H252.493L250.183 67.0791H250.128L247.838 61.8086H245.972V69H247.407ZM257.102 70.9482V69H262.406V70.9482H263.767V67.8174H262.652V61.8086H257.409L257.149 65.6641C257.081 66.6348 256.842 67.4893 256.315 67.8174H255.734V70.9482H257.102ZM261.169 67.8174H257.901V67.7832C258.25 67.3115 258.428 66.5869 258.482 65.7256L258.681 62.9912H261.169V67.8174ZM267.391 69.1299C268.348 69.1299 269.175 68.6377 269.592 67.8652H269.626V69H271.103V64.0439C271.103 62.6016 269.988 61.6719 268.231 61.6719C266.461 61.6719 265.388 62.6221 265.285 63.8594L265.278 63.9346H266.673L266.687 63.873C266.81 63.2988 267.336 62.8955 268.19 62.8955C269.106 62.8955 269.626 63.374 269.626 64.167V64.707L267.664 64.8232C265.962 64.9258 264.991 65.6914 264.991 66.9424V66.9561C264.991 68.248 265.955 69.1299 267.391 69.1299ZM266.481 66.9219V66.9082C266.481 66.2998 266.974 65.9102 267.862 65.8555L269.626 65.7461V66.3066C269.626 67.2432 268.833 67.9473 267.794 67.9473C267.001 67.9473 266.481 67.5508 266.481 66.9219ZM273.161 71.3926H274.638V67.79H274.672C275.096 68.624 275.923 69.1436 276.941 69.1436C278.746 69.1436 279.929 67.7012 279.929 65.4111V65.4043C279.929 63.1074 278.753 61.6719 276.921 61.6719C275.896 61.6719 275.103 62.1914 274.672 63.0459H274.638V61.8086H273.161V71.3926ZM276.538 67.8721C275.424 67.8721 274.631 66.9014 274.631 65.4111V65.4043C274.631 63.9072 275.417 62.9365 276.538 62.9365C277.7 62.9365 278.425 63.873 278.425 65.4043V65.4111C278.425 66.9287 277.7 67.8721 276.538 67.8721ZM280.853 70.9824H281.892L282.89 67.4824H281.413L280.853 70.9824ZM7.13477 91.1299C8.0918 91.1299 8.91895 90.6377 9.33594 89.8652H9.37012V91H10.8467V86.0439C10.8467 84.6016 9.73242 83.6719 7.97559 83.6719C6.20508 83.6719 5.13184 84.6221 5.0293 85.8594L5.02246 85.9346H6.41699L6.43066 85.873C6.55371 85.2988 7.08008 84.8955 7.93457 84.8955C8.85059 84.8955 9.37012 85.374 9.37012 86.167V86.707L7.4082 86.8232C5.70605 86.9258 4.73535 87.6914 4.73535 88.9424V88.9561C4.73535 90.248 5.69922 91.1299 7.13477 91.1299ZM6.22559 88.9219V88.9082C6.22559 88.2998 6.71777 87.9102 7.60645 87.8555L9.37012 87.7461V88.3066C9.37012 89.2432 8.57715 89.9473 7.53809 89.9473C6.74512 89.9473 6.22559 89.5508 6.22559 88.9219ZM17.6221 91H19.0986V83.8086H17.6221V86.707H14.3818V83.8086H12.9053V91H14.3818V87.876H17.6221V91ZM21.1846 91H22.6406L25.9424 85.9482H26.0039V91H27.4736V83.8086H26.0176L22.7158 88.8398H22.6475V83.8086H21.1846V91ZM30.9951 91V86.0098H31.043L33.1826 90.7197H34.2627L36.4092 86.0098H36.457V91H37.8994V83.8086H36.0811L33.7705 89.0791H33.7158L31.4258 83.8086H29.5596V91H30.9951ZM42.0977 91.1299C43.0547 91.1299 43.8818 90.6377 44.2988 89.8652H44.333V91H45.8096V86.0439C45.8096 84.6016 44.6953 83.6719 42.9385 83.6719C41.168 83.6719 40.0947 84.6221 39.9922 85.8594L39.9854 85.9346H41.3799L41.3936 85.873C41.5166 85.2988 42.043 84.8955 42.8975 84.8955C43.8135 84.8955 44.333 85.374 44.333 86.167V86.707L42.3711 86.8232C40.6689 86.9258 39.6982 87.6914 39.6982 88.9424V88.9561C39.6982 90.248 40.6621 91.1299 42.0977 91.1299ZM41.1885 88.9219V88.9082C41.1885 88.2998 41.6807 87.9102 42.5693 87.8555L44.333 87.7461V88.3066C44.333 89.2432 43.54 89.9473 42.501 89.9473C41.708 89.9473 41.1885 89.5508 41.1885 88.9219ZM53.7607 92.9482H55.1006V89.8311H54V83.8086H52.5166V89.8311H49.3516V83.8086H47.8682V91H53.7607V92.9482ZM56.5986 91H58.0547L61.3564 85.9482H61.418V91H62.8877V83.8086H61.4316L58.1299 88.8398H58.0615V83.8086H56.5986V91ZM69.0752 91H70.5449V83.8086H67.626C65.9443 83.8086 64.8506 84.7383 64.8506 86.2285V86.2422C64.8506 87.2402 65.4658 87.9854 66.4639 88.2793L64.502 91H66.1836L67.9199 88.5322H69.0752V91ZM67.7012 87.3906C66.8672 87.3906 66.3477 86.9121 66.3477 86.2354V86.2217C66.3477 85.4424 66.8604 84.9775 67.7012 84.9775H69.0752V87.3906H67.7012ZM74.8594 87.7734L75.0576 84.9844H77.5391V91H79.0156V83.8086H73.7588L73.499 87.6982C73.4102 89.0039 73.1572 89.749 72.4121 89.749C72.2275 89.749 72.0977 89.7217 72.0293 89.7012V90.9932C72.1318 91.0273 72.3369 91.0684 72.6172 91.0684C74.2305 91.0684 74.7158 89.79 74.8594 87.7734ZM81.1084 91H83.9521C85.6133 91 86.6865 90.0361 86.6865 88.5186V88.5049C86.6865 86.9941 85.6133 86.0303 83.9521 86.0303H82.585V83.8086H81.1084V91ZM87.541 91H89.0244V83.8086H87.541V91ZM83.8086 87.1992C84.6426 87.1992 85.1758 87.7119 85.1758 88.5049V88.5186C85.1758 89.3115 84.6494 89.8311 83.8086 89.8311H82.585V87.1992H83.8086ZM92.8467 87.7939L95.4922 91H96.2236V92.9482H97.5635V89.8105H96.3262L94.166 87.1855L97.1943 83.8086H95.4512L92.8467 86.7754H92.5869V83.8086H91.1104V91H92.5869V87.7939H92.8467ZM103.561 91L106.131 87.7734H106.322V91H107.771V87.7734H107.963L110.526 91H112.352L109.282 87.1924L112.235 83.8086H110.492L107.963 86.7959H107.771V83.8086H106.322V86.7959H106.131L103.602 83.8086H101.852L104.805 87.1992L101.742 91H103.561ZM116.632 91.1436C118.689 91.1436 120.043 89.7217 120.043 87.4043V87.3906C120.043 85.0869 118.676 83.6719 116.632 83.6719C114.588 83.6719 113.221 85.0938 113.221 87.3906V87.4043C113.221 89.7148 114.567 91.1436 116.632 91.1436ZM116.639 89.9062C115.483 89.9062 114.731 88.9971 114.731 87.4043V87.3906C114.731 85.8184 115.49 84.9092 116.632 84.9092C117.78 84.9092 118.539 85.8184 118.539 87.3906V87.4043C118.539 88.9902 117.794 89.9062 116.639 89.9062ZM125.007 91.1436C127.126 91.1436 128.432 89.7559 128.432 87.5V87.4863C128.432 85.3877 127.188 84.041 125.246 84.041C124.111 84.041 123.236 84.499 122.771 85.3535H122.737L122.751 85.2578C123.031 83.2959 123.646 82.4619 125.533 82.3936L126.162 82.3662C126.989 82.3389 127.721 82.1816 127.96 81.9902V80.7666C127.557 80.9648 126.818 81.0947 126.08 81.1221L125.438 81.1426C122.71 81.2451 121.548 82.8516 121.548 86.8301V86.8438C121.548 89.6738 122.758 91.1436 125.007 91.1436ZM124.993 89.9062C123.763 89.9062 123.059 89.0449 123.059 87.5205V87.5068C123.059 86.0645 123.77 85.251 124.993 85.251C126.21 85.251 126.921 86.0645 126.921 87.5068V87.5205C126.921 89.0449 126.21 89.9062 124.993 89.9062ZM132.322 91.1299C133.279 91.1299 134.106 90.6377 134.523 89.8652H134.558V91H136.034V86.0439C136.034 84.6016 134.92 83.6719 133.163 83.6719C131.393 83.6719 130.319 84.6221 130.217 85.8594L130.21 85.9346H131.604L131.618 85.873C131.741 85.2988 132.268 84.8955 133.122 84.8955C134.038 84.8955 134.558 85.374 134.558 86.167V86.707L132.596 86.8232C130.894 86.9258 129.923 87.6914 129.923 88.9424V88.9561C129.923 90.248 130.887 91.1299 132.322 91.1299ZM131.413 88.9219V88.9082C131.413 88.2998 131.905 87.9102 132.794 87.8555L134.558 87.7461V88.3066C134.558 89.2432 133.765 89.9473 132.726 89.9473C131.933 89.9473 131.413 89.5508 131.413 88.9219ZM140.328 87.7734L140.526 84.9844H143.008V91H144.484V83.8086H139.228L138.968 87.6982C138.879 89.0039 138.626 89.749 137.881 89.749C137.696 89.749 137.566 89.7217 137.498 89.7012V90.9932C137.601 91.0273 137.806 91.0684 138.086 91.0684C139.699 91.0684 140.185 89.79 140.328 87.7734ZM148.689 91.1299C149.646 91.1299 150.474 90.6377 150.891 89.8652H150.925V91H152.401V86.0439C152.401 84.6016 151.287 83.6719 149.53 83.6719C147.76 83.6719 146.687 84.6221 146.584 85.8594L146.577 85.9346H147.972L147.985 85.873C148.108 85.2988 148.635 84.8955 149.489 84.8955C150.405 84.8955 150.925 85.374 150.925 86.167V86.707L148.963 86.8232C147.261 86.9258 146.29 87.6914 146.29 88.9424V88.9561C146.29 90.248 147.254 91.1299 148.689 91.1299ZM147.78 88.9219V88.9082C147.78 88.2998 148.272 87.9102 149.161 87.8555L150.925 87.7461V88.3066C150.925 89.2432 150.132 89.9473 149.093 89.9473C148.3 89.9473 147.78 89.5508 147.78 88.9219ZM154.46 93.3926H155.937V89.79H155.971C156.395 90.624 157.222 91.1436 158.24 91.1436C160.045 91.1436 161.228 89.7012 161.228 87.4111V87.4043C161.228 85.1074 160.052 83.6719 158.22 83.6719C157.194 83.6719 156.401 84.1914 155.971 85.0459H155.937V83.8086H154.46V93.3926ZM157.837 89.8721C156.723 89.8721 155.93 88.9014 155.93 87.4111V87.4043C155.93 85.9072 156.716 84.9365 157.837 84.9365C158.999 84.9365 159.724 85.873 159.724 87.4043V87.4111C159.724 88.9287 158.999 89.8721 157.837 89.8721ZM162.151 92.9824H163.19L164.188 89.4824H162.712L162.151 92.9824ZM174.376 83.8086H168.395V84.9844H170.644V91H172.127V84.9844H174.376V83.8086ZM178.889 91.1436C180.632 91.1436 181.746 90.1045 181.972 88.9629L181.992 88.8877H180.584L180.563 88.9424C180.379 89.4824 179.798 89.9336 178.923 89.9336C177.747 89.9336 177.002 89.1406 176.975 87.7803H182.067V87.2812C182.067 85.1211 180.83 83.6719 178.813 83.6719C176.797 83.6719 175.498 85.1758 175.498 87.4248V87.4316C175.498 89.7012 176.776 91.1436 178.889 91.1436ZM178.82 84.8818C179.784 84.8818 180.488 85.4902 180.604 86.7344H176.995C177.132 85.5312 177.863 84.8818 178.82 84.8818ZM185.814 87.7734L186.013 84.9844H188.494V91H189.971V83.8086H184.714L184.454 87.6982C184.365 89.0039 184.112 89.749 183.367 89.749C183.183 89.749 183.053 89.7217 182.984 89.7012V90.9932C183.087 91.0273 183.292 91.0684 183.572 91.0684C185.186 91.0684 185.671 89.79 185.814 87.7734ZM195.133 91.1436C196.876 91.1436 197.99 90.1045 198.216 88.9629L198.236 88.8877H196.828L196.808 88.9424C196.623 89.4824 196.042 89.9336 195.167 89.9336C193.991 89.9336 193.246 89.1406 193.219 87.7803H198.312V87.2812C198.312 85.1211 197.074 83.6719 195.058 83.6719C193.041 83.6719 191.742 85.1758 191.742 87.4248V87.4316C191.742 89.7012 193.021 91.1436 195.133 91.1436ZM195.064 84.8818C196.028 84.8818 196.732 85.4902 196.849 86.7344H193.239C193.376 85.5312 194.107 84.8818 195.064 84.8818ZM203.282 91.1436C205.401 91.1436 206.707 89.7559 206.707 87.5V87.4863C206.707 85.3877 205.463 84.041 203.521 84.041C202.387 84.041 201.512 84.499 201.047 85.3535H201.013L201.026 85.2578C201.307 83.2959 201.922 82.4619 203.809 82.3936L204.438 82.3662C205.265 82.3389 205.996 82.1816 206.235 81.9902V80.7666C205.832 80.9648 205.094 81.0947 204.355 81.1221L203.713 81.1426C200.985 81.2451 199.823 82.8516 199.823 86.8301V86.8438C199.823 89.6738 201.033 91.1436 203.282 91.1436ZM203.269 89.9062C202.038 89.9062 201.334 89.0449 201.334 87.5205V87.5068C201.334 86.0645 202.045 85.251 203.269 85.251C204.485 85.251 205.196 86.0645 205.196 87.5068V87.5205C205.196 89.0449 204.485 89.9062 203.269 89.9062ZM210.598 91.1299C211.555 91.1299 212.382 90.6377 212.799 89.8652H212.833V91H214.31V86.0439C214.31 84.6016 213.195 83.6719 211.438 83.6719C209.668 83.6719 208.595 84.6221 208.492 85.8594L208.485 85.9346H209.88L209.894 85.873C210.017 85.2988 210.543 84.8955 211.397 84.8955C212.313 84.8955 212.833 85.374 212.833 86.167V86.707L210.871 86.8232C209.169 86.9258 208.198 87.6914 208.198 88.9424V88.9561C208.198 90.248 209.162 91.1299 210.598 91.1299ZM209.688 88.9219V88.9082C209.688 88.2998 210.181 87.9102 211.069 87.8555L212.833 87.7461V88.3066C212.833 89.2432 212.04 89.9473 211.001 89.9473C210.208 89.9473 209.688 89.5508 209.688 88.9219ZM215.835 88.0811H216.628V91H218.104V88.0811H219.526V87.1514H218.104V84.9844H221.393V83.8086H216.628V87.1514H215.835V88.0811ZM223.643 92.9482V91H228.947V92.9482H230.308V89.8174H229.193V83.8086H223.95L223.69 87.6641C223.622 88.6348 223.383 89.4893 222.856 89.8174H222.275V92.9482H223.643ZM227.71 89.8174H224.442V89.7832C224.791 89.3115 224.969 88.5869 225.023 87.7256L225.222 84.9912H227.71V89.8174ZM233.932 91.1299C234.889 91.1299 235.716 90.6377 236.133 89.8652H236.167V91H237.644V86.0439C237.644 84.6016 236.529 83.6719 234.772 83.6719C233.002 83.6719 231.929 84.6221 231.826 85.8594L231.819 85.9346H233.214L233.228 85.873C233.351 85.2988 233.877 84.8955 234.731 84.8955C235.647 84.8955 236.167 85.374 236.167 86.167V86.707L234.205 86.8232C232.503 86.9258 231.532 87.6914 231.532 88.9424V88.9561C231.532 90.248 232.496 91.1299 233.932 91.1299ZM233.022 88.9219V88.9082C233.022 88.2998 233.515 87.9102 234.403 87.8555L236.167 87.7461V88.3066C236.167 89.2432 235.374 89.9473 234.335 89.9473C233.542 89.9473 233.022 89.5508 233.022 88.9219ZM239.702 93.3926H241.179V89.79H241.213C241.637 90.624 242.464 91.1436 243.482 91.1436C245.287 91.1436 246.47 89.7012 246.47 87.4111V87.4043C246.47 85.1074 245.294 83.6719 243.462 83.6719C242.437 83.6719 241.644 84.1914 241.213 85.0459H241.179V83.8086H239.702V93.3926ZM243.079 89.8721C241.965 89.8721 241.172 88.9014 241.172 87.4111V87.4043C241.172 85.9072 241.958 84.9365 243.079 84.9365C244.241 84.9365 244.966 85.873 244.966 87.4043V87.4111C244.966 88.9287 244.241 89.8721 243.079 89.8721ZM250.217 87.7734L250.415 84.9844H252.896V91H254.373V83.8086H249.116L248.856 87.6982C248.768 89.0039 248.515 89.749 247.77 89.749C247.585 89.749 247.455 89.7217 247.387 89.7012V90.9932C247.489 91.0273 247.694 91.0684 247.975 91.0684C249.588 91.0684 250.073 89.79 250.217 87.7734ZM258.578 91.1299C259.535 91.1299 260.362 90.6377 260.779 89.8652H260.813V91H262.29V86.0439C262.29 84.6016 261.176 83.6719 259.419 83.6719C257.648 83.6719 256.575 84.6221 256.473 85.8594L256.466 85.9346H257.86L257.874 85.873C257.997 85.2988 258.523 84.8955 259.378 84.8955C260.294 84.8955 260.813 85.374 260.813 86.167V86.707L258.852 86.8232C257.149 86.9258 256.179 87.6914 256.179 88.9424V88.9561C256.179 90.248 257.143 91.1299 258.578 91.1299ZM257.669 88.9219V88.9082C257.669 88.2998 258.161 87.9102 259.05 87.8555L260.813 87.7461V88.3066C260.813 89.2432 260.021 89.9473 258.981 89.9473C258.188 89.9473 257.669 89.5508 257.669 88.9219ZM265.784 91V86.0098H265.832L267.972 90.7197H269.052L271.198 86.0098H271.246V91H272.688V83.8086H270.87L268.56 89.0791H268.505L266.215 83.8086H264.349V91H265.784ZM276.887 91.1299C277.844 91.1299 278.671 90.6377 279.088 89.8652H279.122V91H280.599V86.0439C280.599 84.6016 279.484 83.6719 277.728 83.6719C275.957 83.6719 274.884 84.6221 274.781 85.8594L274.774 85.9346H276.169L276.183 85.873C276.306 85.2988 276.832 84.8955 277.687 84.8955C278.603 84.8955 279.122 85.374 279.122 86.167V86.707L277.16 86.8232C275.458 86.9258 274.487 87.6914 274.487 88.9424V88.9561C274.487 90.248 275.451 91.1299 276.887 91.1299ZM275.978 88.9219V88.9082C275.978 88.2998 276.47 87.9102 277.358 87.8555L279.122 87.7461V88.3066C279.122 89.2432 278.329 89.9473 277.29 89.9473C276.497 89.9473 275.978 89.5508 275.978 88.9219ZM284.893 87.7734L285.091 84.9844H287.572V91H289.049V83.8086H283.792L283.532 87.6982C283.443 89.0039 283.19 89.749 282.445 89.749C282.261 89.749 282.131 89.7217 282.062 89.7012V90.9932C282.165 91.0273 282.37 91.0684 282.65 91.0684C284.264 91.0684 284.749 89.79 284.893 87.7734ZM293.254 91.1299C294.211 91.1299 295.038 90.6377 295.455 89.8652H295.489V91H296.966V86.0439C296.966 84.6016 295.852 83.6719 294.095 83.6719C292.324 83.6719 291.251 84.6221 291.148 85.8594L291.142 85.9346H292.536L292.55 85.873C292.673 85.2988 293.199 84.8955 294.054 84.8955C294.97 84.8955 295.489 85.374 295.489 86.167V86.707L293.527 86.8232C291.825 86.9258 290.854 87.6914 290.854 88.9424V88.9561C290.854 90.248 291.818 91.1299 293.254 91.1299ZM292.345 88.9219V88.9082C292.345 88.2998 292.837 87.9102 293.726 87.8555L295.489 87.7461V88.3066C295.489 89.2432 294.696 89.9473 293.657 89.9473C292.864 89.9473 292.345 89.5508 292.345 88.9219ZM299.024 93.3926H300.501V89.79H300.535C300.959 90.624 301.786 91.1436 302.805 91.1436C304.609 91.1436 305.792 89.7012 305.792 87.4111V87.4043C305.792 85.1074 304.616 83.6719 302.784 83.6719C301.759 83.6719 300.966 84.1914 300.535 85.0459H300.501V83.8086H299.024V93.3926ZM302.401 89.8721C301.287 89.8721 300.494 88.9014 300.494 87.4111V87.4043C300.494 85.9072 301.28 84.9365 302.401 84.9365C303.563 84.9365 304.288 85.873 304.288 87.4043V87.4111C304.288 88.9287 303.563 89.8721 302.401 89.8721ZM24.0312 113V108.01H24.0791L26.2188 112.72H27.2988L29.4453 108.01H29.4932V113H30.9355V105.809H29.1172L26.8066 111.079H26.752L24.4619 105.809H22.5957V113H24.0312ZM36.0908 113.144C37.834 113.144 38.9482 112.104 39.1738 110.963L39.1943 110.888H37.7861L37.7656 110.942C37.5811 111.482 37 111.934 36.125 111.934C34.9492 111.934 34.2041 111.141 34.1768 109.78H39.2695V109.281C39.2695 107.121 38.0322 105.672 36.0156 105.672C33.999 105.672 32.7002 107.176 32.7002 109.425V109.432C32.7002 111.701 33.9785 113.144 36.0908 113.144ZM36.0225 106.882C36.9863 106.882 37.6904 107.49 37.8066 108.734H34.1973C34.334 107.531 35.0654 106.882 36.0225 106.882ZM45.7578 113H47.2344V105.809H45.7578V108.707H42.5176V105.809H41.041V113H42.5176V109.876H45.7578V113ZM52.6641 115.393H54.1406V111.79H54.1748C54.5986 112.624 55.4258 113.144 56.4443 113.144C58.249 113.144 59.4316 111.701 59.4316 109.411V109.404C59.4316 107.107 58.2559 105.672 56.4238 105.672C55.3984 105.672 54.6055 106.191 54.1748 107.046H54.1406V105.809H52.6641V115.393ZM56.041 111.872C54.9268 111.872 54.1338 110.901 54.1338 109.411V109.404C54.1338 107.907 54.9199 106.937 56.041 106.937C57.2031 106.937 57.9277 107.873 57.9277 109.404V109.411C57.9277 110.929 57.2031 111.872 56.041 111.872ZM64.2725 113.144C66.0156 113.144 67.1299 112.104 67.3555 110.963L67.376 110.888H65.9678L65.9473 110.942C65.7627 111.482 65.1816 111.934 64.3066 111.934C63.1309 111.934 62.3857 111.141 62.3584 109.78H67.4512V109.281C67.4512 107.121 66.2139 105.672 64.1973 105.672C62.1807 105.672 60.8818 107.176 60.8818 109.425V109.432C60.8818 111.701 62.1602 113.144 64.2725 113.144ZM64.2041 106.882C65.168 106.882 65.8721 107.49 65.9883 108.734H62.3789C62.5156 107.531 63.2471 106.882 64.2041 106.882ZM71.335 113.13C72.292 113.13 73.1191 112.638 73.5361 111.865H73.5703V113H75.0469V108.044C75.0469 106.602 73.9326 105.672 72.1758 105.672C70.4053 105.672 69.332 106.622 69.2295 107.859L69.2227 107.935H70.6172L70.6309 107.873C70.7539 107.299 71.2803 106.896 72.1348 106.896C73.0508 106.896 73.5703 107.374 73.5703 108.167V108.707L71.6084 108.823C69.9062 108.926 68.9355 109.691 68.9355 110.942V110.956C68.9355 112.248 69.8994 113.13 71.335 113.13ZM70.4258 110.922V110.908C70.4258 110.3 70.918 109.91 71.8066 109.855L73.5703 109.746V110.307C73.5703 111.243 72.7773 111.947 71.7383 111.947C70.9453 111.947 70.4258 111.551 70.4258 110.922ZM79.3408 109.773L79.5391 106.984H82.0205V113H83.4971V105.809H78.2402L77.9805 109.698C77.8916 111.004 77.6387 111.749 76.8936 111.749C76.709 111.749 76.5791 111.722 76.5107 111.701V112.993C76.6133 113.027 76.8184 113.068 77.0986 113.068C78.7119 113.068 79.1973 111.79 79.3408 109.773ZM85.5898 113H87.0459L90.3477 107.948H90.4092V113H91.8789V105.809H90.4229L87.1211 110.84H87.0527V105.809H85.5898V113ZM99.4336 105.809H93.4521V106.984H95.7012V113H97.1846V106.984H99.4336V105.809ZM101.014 113H102.47L105.771 107.948H105.833V113H107.303V105.809H105.847L102.545 110.84H102.477V105.809H101.014V113ZM109.43 109.664H113.825V108.331H109.43V109.664ZM115.959 113H125.194V105.809H123.718V111.817H121.318V105.809H119.835V111.817H117.436V105.809H115.959V113ZM130.377 113.144C132.435 113.144 133.788 111.722 133.788 109.404V109.391C133.788 107.087 132.421 105.672 130.377 105.672C128.333 105.672 126.966 107.094 126.966 109.391V109.404C126.966 111.715 128.312 113.144 130.377 113.144ZM130.384 111.906C129.229 111.906 128.477 110.997 128.477 109.404V109.391C128.477 107.818 129.235 106.909 130.377 106.909C131.525 106.909 132.284 107.818 132.284 109.391V109.404C132.284 110.99 131.539 111.906 130.384 111.906ZM136.209 115.399C137.617 115.399 138.369 114.825 138.902 113.335L141.582 105.809H140.023L138.212 111.66H138.164L136.353 105.809H134.753L137.371 113.007L137.248 113.349C137.002 114.046 136.619 114.23 135.922 114.23C135.724 114.23 135.553 114.203 135.437 114.176V115.331C135.614 115.365 135.922 115.399 136.209 115.399ZM144.851 109.773L145.049 106.984H147.53V113H149.007V105.809H143.75L143.49 109.698C143.401 111.004 143.148 111.749 142.403 111.749C142.219 111.749 142.089 111.722 142.021 111.701V112.993C142.123 113.027 142.328 113.068 142.608 113.068C144.222 113.068 144.707 111.79 144.851 109.773ZM153.212 113.13C154.169 113.13 154.996 112.638 155.413 111.865H155.447V113H156.924V108.044C156.924 106.602 155.81 105.672 154.053 105.672C152.282 105.672 151.209 106.622 151.106 107.859L151.1 107.935H152.494L152.508 107.873C152.631 107.299 153.157 106.896 154.012 106.896C154.928 106.896 155.447 107.374 155.447 108.167V108.707L153.485 108.823C151.783 108.926 150.812 109.691 150.812 110.942V110.956C150.812 112.248 151.776 113.13 153.212 113.13ZM152.303 110.922V110.908C152.303 110.3 152.795 109.91 153.684 109.855L155.447 109.746V110.307C155.447 111.243 154.654 111.947 153.615 111.947C152.822 111.947 152.303 111.551 152.303 110.922ZM158.982 115.393H160.459V111.79H160.493C160.917 112.624 161.744 113.144 162.763 113.144C164.567 113.144 165.75 111.701 165.75 109.411V109.404C165.75 107.107 164.574 105.672 162.742 105.672C161.717 105.672 160.924 106.191 160.493 107.046H160.459V105.809H158.982V115.393ZM162.359 111.872C161.245 111.872 160.452 110.901 160.452 109.411V109.404C160.452 107.907 161.238 106.937 162.359 106.937C163.521 106.937 164.246 107.873 164.246 109.404V109.411C164.246 110.929 163.521 111.872 162.359 111.872ZM166.674 114.982H167.713L168.711 111.482H167.234L166.674 114.982ZM175.542 113.13C176.499 113.13 177.326 112.638 177.743 111.865H177.777V113H179.254V108.044C179.254 106.602 178.14 105.672 176.383 105.672C174.612 105.672 173.539 106.622 173.437 107.859L173.43 107.935H174.824L174.838 107.873C174.961 107.299 175.487 106.896 176.342 106.896C177.258 106.896 177.777 107.374 177.777 108.167V108.707L175.815 108.823C174.113 108.926 173.143 109.691 173.143 110.942V110.956C173.143 112.248 174.106 113.13 175.542 113.13ZM174.633 110.922V110.908C174.633 110.3 175.125 109.91 176.014 109.855L177.777 109.746V110.307C177.777 111.243 176.984 111.947 175.945 111.947C175.152 111.947 174.633 111.551 174.633 110.922ZM186.029 113H187.506V105.809H186.029V108.707H182.789V105.809H181.312V113H182.789V109.876H186.029V113ZM189.592 113H191.048L194.35 107.948H194.411V113H195.881V105.809H194.425L191.123 110.84H191.055V105.809H189.592V113ZM199.402 113V108.01H199.45L201.59 112.72H202.67L204.816 108.01H204.864V113H206.307V105.809H204.488L202.178 111.079H202.123L199.833 105.809H197.967V113H199.402ZM211.462 113.144C213.205 113.144 214.319 112.104 214.545 110.963L214.565 110.888H213.157L213.137 110.942C212.952 111.482 212.371 111.934 211.496 111.934C210.32 111.934 209.575 111.141 209.548 109.78H214.641V109.281C214.641 107.121 213.403 105.672 211.387 105.672C209.37 105.672 208.071 107.176 208.071 109.425V109.432C208.071 111.701 209.35 113.144 211.462 113.144ZM211.394 106.882C212.357 106.882 213.062 107.49 213.178 108.734H209.568C209.705 107.531 210.437 106.882 211.394 106.882ZM220.911 113L223.481 109.773H223.673V113H225.122V109.773H225.313L227.877 113H229.702L226.633 109.192L229.586 105.809H227.843L225.313 108.796H225.122V105.809H223.673V108.796H223.481L220.952 105.809H219.202L222.155 109.199L219.093 113H220.911ZM233.723 105.672C231.973 105.672 230.865 106.711 230.64 107.853L230.619 107.921H232.027L232.048 107.866C232.226 107.333 232.813 106.882 233.688 106.882C234.864 106.882 235.609 107.675 235.637 109.028H230.544V109.527C230.544 111.694 231.781 113.144 233.798 113.144C235.814 113.144 237.113 111.64 237.113 109.391V109.384C237.113 107.107 235.835 105.672 233.723 105.672ZM233.791 111.934C232.827 111.934 232.123 111.325 232 110.074H235.616C235.479 111.284 234.748 111.934 233.791 111.934ZM243.602 113H245.078V105.809H243.602V108.707H240.361V105.809H238.885V113H240.361V109.876H243.602V113ZM250.233 113.144C251.977 113.144 253.091 112.104 253.316 110.963L253.337 110.888H251.929L251.908 110.942C251.724 111.482 251.143 111.934 250.268 111.934C249.092 111.934 248.347 111.141 248.319 109.78H253.412V109.281C253.412 107.121 252.175 105.672 250.158 105.672C248.142 105.672 246.843 107.176 246.843 109.425V109.432C246.843 111.701 248.121 113.144 250.233 113.144ZM250.165 106.882C251.129 106.882 251.833 107.49 251.949 108.734H248.34C248.477 107.531 249.208 106.882 250.165 106.882ZM263.996 105.809H258.015V106.984H260.264V113H261.747V106.984H263.996V105.809ZM267.456 113.13C268.413 113.13 269.24 112.638 269.657 111.865H269.691V113H271.168V108.044C271.168 106.602 270.054 105.672 268.297 105.672C266.526 105.672 265.453 106.622 265.351 107.859L265.344 107.935H266.738L266.752 107.873C266.875 107.299 267.401 106.896 268.256 106.896C269.172 106.896 269.691 107.374 269.691 108.167V108.707L267.729 108.823C266.027 108.926 265.057 109.691 265.057 110.942V110.956C265.057 112.248 266.021 113.13 267.456 113.13ZM266.547 110.922V110.908C266.547 110.3 267.039 109.91 267.928 109.855L269.691 109.746V110.307C269.691 111.243 268.898 111.947 267.859 111.947C267.066 111.947 266.547 111.551 266.547 110.922ZM272.693 110.081H273.486V113H274.963V110.081H276.385V109.151H274.963V106.984H278.251V105.809H273.486V109.151H272.693V110.081ZM279.988 113H282.832C284.493 113 285.566 112.036 285.566 110.519V110.505C285.566 108.994 284.493 108.03 282.832 108.03H281.465V105.809H279.988V113ZM286.421 113H287.904V105.809H286.421V113ZM282.688 109.199C283.522 109.199 284.056 109.712 284.056 110.505V110.519C284.056 111.312 283.529 111.831 282.688 111.831H281.465V109.199H282.688ZM122.328 135.144C124.447 135.144 125.753 133.756 125.753 131.5V131.486C125.753 129.388 124.509 128.041 122.567 128.041C121.433 128.041 120.558 128.499 120.093 129.354H120.059L120.072 129.258C120.353 127.296 120.968 126.462 122.854 126.394L123.483 126.366C124.311 126.339 125.042 126.182 125.281 125.99V124.767C124.878 124.965 124.14 125.095 123.401 125.122L122.759 125.143C120.031 125.245 118.869 126.852 118.869 130.83V130.844C118.869 133.674 120.079 135.144 122.328 135.144ZM122.314 133.906C121.084 133.906 120.38 133.045 120.38 131.521V131.507C120.38 130.064 121.091 129.251 122.314 129.251C123.531 129.251 124.242 130.064 124.242 131.507V131.521C124.242 133.045 123.531 133.906 122.314 133.906ZM129.644 135.13C130.601 135.13 131.428 134.638 131.845 133.865H131.879V135H133.355V130.044C133.355 128.602 132.241 127.672 130.484 127.672C128.714 127.672 127.641 128.622 127.538 129.859L127.531 129.935H128.926L128.939 129.873C129.062 129.299 129.589 128.896 130.443 128.896C131.359 128.896 131.879 129.374 131.879 130.167V130.707L129.917 130.823C128.215 130.926 127.244 131.691 127.244 132.942V132.956C127.244 134.248 128.208 135.13 129.644 135.13ZM128.734 132.922V132.908C128.734 132.3 129.227 131.91 130.115 131.855L131.879 131.746V132.307C131.879 133.243 131.086 133.947 130.047 133.947C129.254 133.947 128.734 133.551 128.734 132.922ZM138.504 135.144C140.233 135.144 141.437 134.036 141.594 132.594L141.601 132.546H140.186L140.172 132.601C139.994 133.38 139.42 133.906 138.511 133.906C137.362 133.906 136.604 132.983 136.604 131.411V131.404C136.604 129.866 137.349 128.909 138.497 128.909C139.461 128.909 140.008 129.504 140.165 130.208L140.179 130.263H141.587L141.58 130.215C141.457 128.861 140.336 127.672 138.49 127.672C136.433 127.672 135.093 129.114 135.093 131.391V131.397C135.093 133.701 136.405 135.144 138.504 135.144ZM145.006 131.794L147.651 135H148.383V136.948H149.723V133.811H148.485L146.325 131.186L149.354 127.809H147.61L145.006 130.775H144.746V127.809H143.27V135H144.746V131.794H145.006ZM153.278 135.13C154.235 135.13 155.062 134.638 155.479 133.865H155.514V135H156.99V130.044C156.99 128.602 155.876 127.672 154.119 127.672C152.349 127.672 151.275 128.622 151.173 129.859L151.166 129.935H152.561L152.574 129.873C152.697 129.299 153.224 128.896 154.078 128.896C154.994 128.896 155.514 129.374 155.514 130.167V130.707L153.552 130.823C151.85 130.926 150.879 131.691 150.879 132.942V132.956C150.879 134.248 151.843 135.13 153.278 135.13ZM152.369 132.922V132.908C152.369 132.3 152.861 131.91 153.75 131.855L155.514 131.746V132.307C155.514 133.243 154.721 133.947 153.682 133.947C152.889 133.947 152.369 133.551 152.369 132.922ZM161.284 131.773L161.482 128.984H163.964V135H165.44V127.809H160.184L159.924 131.698C159.835 133.004 159.582 133.749 158.837 133.749C158.652 133.749 158.522 133.722 158.454 133.701V134.993C158.557 135.027 158.762 135.068 159.042 135.068C160.655 135.068 161.141 133.79 161.284 131.773ZM169.646 135.13C170.603 135.13 171.43 134.638 171.847 133.865H171.881V135H173.357V130.044C173.357 128.602 172.243 127.672 170.486 127.672C168.716 127.672 167.643 128.622 167.54 129.859L167.533 129.935H168.928L168.941 129.873C169.064 129.299 169.591 128.896 170.445 128.896C171.361 128.896 171.881 129.374 171.881 130.167V130.707L169.919 130.823C168.217 130.926 167.246 131.691 167.246 132.942V132.956C167.246 134.248 168.21 135.13 169.646 135.13ZM168.736 132.922V132.908C168.736 132.3 169.229 131.91 170.117 131.855L171.881 131.746V132.307C171.881 133.243 171.088 133.947 170.049 133.947C169.256 133.947 168.736 133.551 168.736 132.922ZM175.416 137.393H176.893V133.79H176.927C177.351 134.624 178.178 135.144 179.196 135.144C181.001 135.144 182.184 133.701 182.184 131.411V131.404C182.184 129.107 181.008 127.672 179.176 127.672C178.15 127.672 177.357 128.191 176.927 129.046H176.893V127.809H175.416V137.393ZM178.793 133.872C177.679 133.872 176.886 132.901 176.886 131.411V131.404C176.886 129.907 177.672 128.937 178.793 128.937C179.955 128.937 180.68 129.873 180.68 131.404V131.411C180.68 132.929 179.955 133.872 178.793 133.872ZM183.955 135H186.799C188.46 135 189.533 134.036 189.533 132.519V132.505C189.533 130.994 188.46 130.03 186.799 130.03H185.432V127.809H183.955V135ZM190.388 135H191.871V127.809H190.388V135ZM186.655 131.199C187.489 131.199 188.022 131.712 188.022 132.505V132.519C188.022 133.312 187.496 133.831 186.655 133.831H185.432V131.199H186.655Z" fill="#6B7280"/>
</svg>
