<svg width="311" height="119" viewBox="0 0 311 119" fill="none" xmlns="http://www.w3.org/2000/svg">
<path d="M26.8086 4.50781C27.7461 4.50781 28.4727 3.76953 28.4727 2.87891C28.4727 2 27.7461 1.26172 26.8086 1.26172C25.8711 1.26172 25.1445 2 25.1445 2.87891C25.1445 3.76953 25.8711 4.50781 26.8086 4.50781ZM31.707 4.50781C32.6562 4.50781 33.3711 3.76953 33.3711 2.87891C33.3711 2 32.6562 1.26172 31.707 1.26172C30.7695 1.26172 30.043 2 30.043 2.87891C30.043 3.76953 30.7695 4.50781 31.707 4.50781ZM29.2578 23.293C34.2852 23.293 37.4141 19.9297 37.4141 14.5508V14.5273C37.4141 9.16016 34.2734 5.79688 29.2578 5.79688C24.2539 5.79688 21.1016 9.14844 21.1016 14.5273V14.5508C21.1016 19.9297 24.2305 23.293 29.2578 23.293ZM29.2578 20.293C26.4805 20.293 24.7109 18.0898 24.7109 14.5508V14.5273C24.7109 10.9883 26.4922 8.79688 29.2578 8.79688C32.0352 8.79688 33.8047 11 33.8047 14.5273V14.5508C33.8047 18.0547 32.0703 20.293 29.2578 20.293ZM39.7188 23H52.7734V20.082H43.9727V20.0117L52.5391 8.38672V6.08984H39.918V9.00781H48.3203V9.07812L39.7188 20.6914V23ZM55.7227 23H59.2617V6.08984H55.7227V23ZM62.5742 23H66.1016V11.9258H66.1719L73.8359 23H76.9062V6.08984H73.3789V17.082H73.3086L65.668 6.08984H62.5742V23ZM86.2188 28.5664C87.9062 28.5664 89.1367 27.6875 89.1367 26.2578V26.2344C89.1367 24.8633 88.3047 24.0898 87.0039 23.9609L87.4492 23.2461C91.082 22.9414 93.2266 20.9609 93.2266 17.9844V17.9727C93.2266 15.3125 91.6328 13.8711 88.0938 13.168L86.3008 12.8047C84.3555 12.418 83.4883 11.7969 83.4883 10.7305V10.7188C83.4883 9.51172 84.5781 8.67969 86.3945 8.66797C88.1406 8.66797 89.3594 9.47656 89.5352 10.8008L89.5469 10.9414H92.8867L92.875 10.7188C92.7109 7.75391 90.3086 5.79688 86.3945 5.79688C82.6445 5.79688 79.9492 7.83594 79.9492 10.9297V10.9414C79.9492 13.4844 81.6367 15.0781 84.9766 15.7461L86.7578 16.0977C88.8555 16.5312 89.6875 17.1055 89.6875 18.2539V18.2656C89.6875 19.5547 88.457 20.4102 86.5 20.4102C84.5664 20.4102 83.1719 19.5898 82.9492 18.2773L82.9258 18.1484H79.5859L79.5977 18.3359C79.7734 21.2188 82 23 85.5156 23.2578L84.8008 24.3945V25.4141H85.2461C86.1133 25.4141 86.5117 25.6836 86.5117 26.1406V26.1641C86.5117 26.6094 86.0547 26.8086 85.4219 26.8086C84.9766 26.8086 84.5312 26.7383 84.25 26.6445V28.2852C84.625 28.4492 85.3984 28.5664 86.2188 28.5664ZM95.8945 23H107.098V20.082H99.4336V15.8281H106.664V13.0625H99.4336V9.00781H107.098V6.08984H95.8945V23ZM110.176 17.6211H117.77V14.6328H110.176V17.6211ZM129.754 13.0156V10.4375H121V23H124.422V13.0156H129.754ZM137.695 23.2578C141.27 23.2578 143.004 21.1367 143.402 19.2852L143.426 19.1562H140.285L140.262 19.2266C140.027 19.9297 139.172 20.7031 137.766 20.7031C136.02 20.7031 134.93 19.5312 134.883 17.5273H143.531V16.4727C143.531 12.6758 141.234 10.1797 137.555 10.1797C133.863 10.1797 131.508 12.7344 131.508 16.7305V16.7422C131.508 20.7617 133.84 23.2578 137.695 23.2578ZM137.613 12.7344C139.02 12.7344 140.039 13.6367 140.25 15.3711H134.93C135.152 13.6719 136.195 12.7344 137.613 12.7344ZM155.09 17.7266L159.016 23H160.305V26.3398H163.387V20.3633H161.137L158.055 16.2617L162.836 10.4375H158.945L155.09 15.3711H154.68V10.4375H151.258V23H154.68V17.7266H155.09ZM170.73 23.2578C174.527 23.2578 176.953 20.8203 176.953 16.7188V16.6953C176.953 12.6289 174.492 10.1797 170.73 10.1797C166.969 10.1797 164.508 12.6523 164.508 16.6953V16.7188C164.508 20.8086 166.922 23.2578 170.73 23.2578ZM170.742 20.5742C169.055 20.5742 167.988 19.1797 167.988 16.7188V16.6953C167.988 14.2695 169.078 12.8633 170.73 12.8633C172.395 12.8633 173.473 14.2695 173.473 16.6953V16.7188C173.473 19.168 172.418 20.5742 170.742 20.5742ZM179.422 23H196.66V10.4375H193.238V20.375H189.746V10.4375H186.324V20.375H182.844V10.4375H179.422V23ZM208.699 17.7266L212.625 23H216.738L211.664 16.2617L216.445 10.4375H212.555L208.699 15.3711H208.289V10.4375H204.867V23H208.289V17.7266H208.699ZM224.023 23.2578C227.598 23.2578 229.332 21.1367 229.73 19.2852L229.754 19.1562H226.613L226.59 19.2266C226.355 19.9297 225.5 20.7031 224.094 20.7031C222.348 20.7031 221.258 19.5312 221.211 17.5273H229.859V16.4727C229.859 12.6758 227.562 10.1797 223.883 10.1797C220.191 10.1797 217.836 12.7344 217.836 16.7305V16.7422C217.836 20.7617 220.168 23.2578 224.023 23.2578ZM223.941 12.7344C225.348 12.7344 226.367 13.6367 226.578 15.3711H221.258C221.48 13.6719 222.523 12.7344 223.941 12.7344ZM236.547 17.1758L236.805 13.0273H240.262V23H243.684V10.4375H233.863L233.488 16.8945C233.359 19.1445 232.949 20.1641 231.73 20.1641C231.414 20.1641 231.18 20.1289 231.039 20.0938V22.9648C231.238 23.0234 231.684 23.1172 232.316 23.1172C235.398 23.1172 236.324 20.8086 236.547 17.1758ZM248.777 26.3398V23H257.227V26.3398H260.344V20.375H258.469V10.4375H248.414L248.004 16.7539C247.887 18.4531 247.535 19.8594 246.621 20.375H245.66V26.3398H248.777ZM255.047 20.375H250.078V20.3047C250.664 19.4492 250.934 18.3242 251.016 16.9766L251.297 13.0625H255.047V20.375ZM264.137 8.82031C265.168 8.82031 265.965 8.01172 265.965 7.03906C265.965 6.06641 265.168 5.25781 264.137 5.25781C263.117 5.25781 262.309 6.06641 262.309 7.03906C262.309 8.01172 263.117 8.82031 264.137 8.82031ZM262.426 23H265.848V10.4375H262.426V23ZM279.285 26.3398H282.379V20.4219H280.492V10.4375H277.07V15.2656H272.266V10.4375H268.844V23H272.266V17.8555H277.07V23H279.285V26.3398ZM285.504 17.3164H288.457L288.738 6.08984H285.223L285.504 17.3164ZM286.98 23.1406C288.047 23.1406 288.891 22.332 288.891 21.3008C288.891 20.2695 288.047 19.4609 286.98 19.4609C285.914 19.4609 285.07 20.2695 285.07 21.3008C285.07 22.332 285.914 23.1406 286.98 23.1406Z" fill="#111827"/>
<path d="M58.0957 69V64.5771H58.4785L62.4092 69H64.3916L59.7637 63.832L63.9814 59.1357H62.1562L58.4785 63.374H58.0957V59.1357H56.5645V69H58.0957ZM68.4668 69.1436C70.21 69.1436 71.3242 68.1045 71.5498 66.9629L71.5703 66.8877H70.1621L70.1416 66.9424C69.957 67.4824 69.376 67.9336 68.501 67.9336C67.3252 67.9336 66.5801 67.1406 66.5527 65.7803H71.6455V65.2812C71.6455 63.1211 70.4082 61.6719 68.3916 61.6719C66.375 61.6719 65.0762 63.1758 65.0762 65.4248V65.4316C65.0762 67.7012 66.3545 69.1436 68.4668 69.1436ZM68.3984 62.8818C69.3623 62.8818 70.0664 63.4902 70.1826 64.7344H66.5732C66.71 63.5312 67.4414 62.8818 68.3984 62.8818ZM76.0078 69.1436C77.7715 69.1436 78.9404 68.248 78.9404 66.9082V66.8945C78.9404 66.0537 78.4209 65.4795 77.4707 65.2881V65.2334C78.2432 65.0557 78.7422 64.4473 78.7422 63.6748V63.6611C78.7422 62.4307 77.7305 61.6719 76.0762 61.6719C74.4561 61.6719 73.3965 62.4375 73.2256 63.7158L73.2188 63.7705H74.627L74.6338 63.7227C74.7432 63.1758 75.2832 62.8408 76.0557 62.8408C76.835 62.8408 77.2998 63.2031 77.2998 63.8184V63.832C77.2998 64.4746 76.8555 64.8027 75.9873 64.8027H74.9551V65.876H75.9941C76.9922 65.876 77.4707 66.2041 77.4707 66.8945V66.9082C77.4707 67.5645 76.9102 67.9678 76.001 67.9678C75.1875 67.9678 74.6543 67.6533 74.4902 67.0723L74.4697 67.0039H73.0205L73.0273 67.0654C73.1709 68.3369 74.3262 69.1436 76.0078 69.1436ZM85.8193 65.7939L88.4648 69H90.29L87.1387 65.1855L90.167 61.8086H88.4238L85.8193 64.7754H85.5596V61.8086H84.083V69H85.5596V65.7939H85.8193ZM94.6387 69.1436C96.3818 69.1436 97.4961 68.1045 97.7217 66.9629L97.7422 66.8877H96.334L96.3135 66.9424C96.1289 67.4824 95.5479 67.9336 94.6729 67.9336C93.4971 67.9336 92.752 67.1406 92.7246 65.7803H97.8174V65.2812C97.8174 63.1211 96.5801 61.6719 94.5635 61.6719C92.5469 61.6719 91.248 63.1758 91.248 65.4248V65.4316C91.248 67.7012 92.5264 69.1436 94.6387 69.1436ZM94.5703 62.8818C95.5342 62.8818 96.2383 63.4902 96.3545 64.7344H92.7451C92.8818 63.5312 93.6133 62.8818 94.5703 62.8818ZM101.564 65.7734L101.763 62.9844H104.244V69H105.721V61.8086H100.464L100.204 65.6982C100.115 67.0039 99.8623 67.749 99.1172 67.749C98.9326 67.749 98.8027 67.7217 98.7344 67.7012V68.9932C98.8369 69.0273 99.042 69.0684 99.3223 69.0684C100.936 69.0684 101.421 67.79 101.564 65.7734ZM112.578 62.9844V61.8086H107.813V69H109.29V62.9844H112.578ZM117.152 69.1436C118.896 69.1436 120.01 68.1045 120.235 66.9629L120.256 66.8877H118.848L118.827 66.9424C118.643 67.4824 118.062 67.9336 117.187 67.9336C116.011 67.9336 115.266 67.1406 115.238 65.7803H120.331V65.2812C120.331 63.1211 119.094 61.6719 117.077 61.6719C115.061 61.6719 113.762 63.1758 113.762 65.4248V65.4316C113.762 67.7012 115.04 69.1436 117.152 69.1436ZM117.084 62.8818C118.048 62.8818 118.752 63.4902 118.868 64.7344H115.259C115.396 63.5312 116.127 62.8818 117.084 62.8818ZM126.819 69H128.296V61.8086H126.819V64.707H123.579V61.8086H122.103V69H123.579V65.876H126.819V69ZM135.462 65.7939L138.107 69H138.839V70.9482H140.179V67.8105H138.941L136.781 65.1855L139.81 61.8086H138.066L135.462 64.7754H135.202V61.8086H133.726V69H135.202V65.7939H135.462ZM141.731 69.4648H143.481V71.3789H144.917V69.4648H146.646V68.5352H145.074L147.576 61.8086H146.018L144.247 67.2021H144.158L142.381 61.8086H140.809L143.324 68.5352H141.731V69.4648ZM148.985 71.3926H150.462V67.79H150.496C150.92 68.624 151.747 69.1436 152.766 69.1436C154.57 69.1436 155.753 67.7012 155.753 65.4111V65.4043C155.753 63.1074 154.577 61.6719 152.745 61.6719C151.72 61.6719 150.927 62.1914 150.496 63.0459H150.462V61.8086H148.985V71.3926ZM152.362 67.8721C151.248 67.8721 150.455 66.9014 150.455 65.4111V65.4043C150.455 63.9072 151.241 62.9365 152.362 62.9365C153.524 62.9365 154.249 63.873 154.249 65.4043V65.4111C154.249 66.9287 153.524 67.8721 152.362 67.8721ZM157.524 69H160.368C162.029 69 163.103 68.0361 163.103 66.5186V66.5049C163.103 64.9941 162.029 64.0303 160.368 64.0303H159.001V61.8086H157.524V69ZM163.957 69H165.44V61.8086H163.957V69ZM160.225 65.1992C161.059 65.1992 161.592 65.7119 161.592 66.5049V66.5186C161.592 67.3115 161.065 67.8311 160.225 67.8311H159.001V65.1992H160.225ZM169.762 65.7734L169.96 62.9844H172.441V69H173.918V61.8086H168.661L168.401 65.6982C168.312 67.0039 168.06 67.749 167.314 67.749C167.13 67.749 167 67.7217 166.932 67.7012V68.9932C167.034 69.0273 167.239 69.0684 167.52 69.0684C169.133 69.0684 169.618 67.79 169.762 65.7734ZM175.478 66.0811H176.271V69H177.747V66.0811H179.169V65.1514H177.747V62.9844H181.035V61.8086H176.271V65.1514H175.478V66.0811ZM182.772 69H185.616C187.277 69 188.351 68.0361 188.351 66.5186V66.5049C188.351 64.9941 187.277 64.0303 185.616 64.0303H184.249V61.8086H182.772V69ZM189.205 69H190.688V61.8086H189.205V69ZM185.473 65.1992C186.307 65.1992 186.84 65.7119 186.84 66.5049V66.5186C186.84 67.3115 186.313 67.8311 185.473 67.8311H184.249V65.1992H185.473ZM193.479 70.9482V69H198.783V70.9482H200.144V67.8174H199.029V61.8086H193.786L193.526 65.6641C193.458 66.6348 193.219 67.4893 192.692 67.8174H192.111V70.9482H193.479ZM197.546 67.8174H194.278V67.7832C194.627 67.3115 194.805 66.5869 194.859 65.7256L195.058 62.9912H197.546V67.8174ZM203.768 69.1299C204.725 69.1299 205.552 68.6377 205.969 67.8652H206.003V69H207.479V64.0439C207.479 62.6016 206.365 61.6719 204.608 61.6719C202.838 61.6719 201.765 62.6221 201.662 63.8594L201.655 63.9346H203.05L203.063 63.873C203.187 63.2988 203.713 62.8955 204.567 62.8955C205.483 62.8955 206.003 63.374 206.003 64.167V64.707L204.041 64.8232C202.339 64.9258 201.368 65.6914 201.368 66.9424V66.9561C201.368 68.248 202.332 69.1299 203.768 69.1299ZM202.858 66.9219V66.9082C202.858 66.2998 203.351 65.9102 204.239 65.8555L206.003 65.7461V66.3066C206.003 67.2432 205.21 67.9473 204.171 67.9473C203.378 67.9473 202.858 67.5508 202.858 66.9219ZM214.255 69H215.731V61.8086H214.255V64.707H211.015V61.8086H209.538V69H211.015V65.876H214.255V69ZM222.897 65.7939L225.543 69H226.274V70.9482H227.614V67.8105H226.377L224.217 65.1855L227.245 61.8086H225.502L222.897 64.7754H222.638V61.8086H221.161V69H222.638V65.7939H222.897ZM231.17 69.1299C232.127 69.1299 232.954 68.6377 233.371 67.8652H233.405V69H234.882V64.0439C234.882 62.6016 233.768 61.6719 232.011 61.6719C230.24 61.6719 229.167 62.6221 229.064 63.8594L229.058 63.9346H230.452L230.466 63.873C230.589 63.2988 231.115 62.8955 231.97 62.8955C232.886 62.8955 233.405 63.374 233.405 64.167V64.707L231.443 64.8232C229.741 64.9258 228.771 65.6914 228.771 66.9424V66.9561C228.771 68.248 229.734 69.1299 231.17 69.1299ZM230.261 66.9219V66.9082C230.261 66.2998 230.753 65.9102 231.642 65.8555L233.405 65.7461V66.3066C233.405 67.2432 232.612 67.9473 231.573 67.9473C230.78 67.9473 230.261 67.5508 230.261 66.9219ZM236.94 71.3926H238.417V67.79H238.451C238.875 68.624 239.702 69.1436 240.721 69.1436C242.525 69.1436 243.708 67.7012 243.708 65.4111V65.4043C243.708 63.1074 242.532 61.6719 240.7 61.6719C239.675 61.6719 238.882 62.1914 238.451 63.0459H238.417V61.8086H236.94V71.3926ZM240.317 67.8721C239.203 67.8721 238.41 66.9014 238.41 65.4111V65.4043C238.41 63.9072 239.196 62.9365 240.317 62.9365C241.479 62.9365 242.204 63.873 242.204 65.4043V65.4111C242.204 66.9287 241.479 67.8721 240.317 67.8721ZM247.592 69.1299C248.549 69.1299 249.376 68.6377 249.793 67.8652H249.827V69H251.304V64.0439C251.304 62.6016 250.189 61.6719 248.433 61.6719C246.662 61.6719 245.589 62.6221 245.486 63.8594L245.479 63.9346H246.874L246.888 63.873C247.011 63.2988 247.537 62.8955 248.392 62.8955C249.308 62.8955 249.827 63.374 249.827 64.167V64.707L247.865 64.8232C246.163 64.9258 245.192 65.6914 245.192 66.9424V66.9561C245.192 68.248 246.156 69.1299 247.592 69.1299ZM246.683 66.9219V66.9082C246.683 66.2998 247.175 65.9102 248.063 65.8555L249.827 65.7461V66.3066C249.827 67.2432 249.034 67.9473 247.995 67.9473C247.202 67.9473 246.683 67.5508 246.683 66.9219ZM32.6992 91.1641C34.8799 91.1641 36.5137 89.8447 36.8213 87.8828L36.835 87.8145H35.3105L35.2969 87.876C34.9209 89.127 34.0117 89.8105 32.6992 89.8105C30.874 89.8105 29.6914 88.3477 29.6914 86.0645V86.0576C29.6914 83.7744 30.8672 82.3252 32.6992 82.3252C34.0254 82.3252 34.9414 83.0293 35.2695 84.1846L35.3105 84.3213H36.8281L36.8213 84.2598C36.5068 82.3115 34.873 80.9717 32.6992 80.9717C29.9033 80.9717 28.126 82.9268 28.126 86.0576V86.0645C28.126 89.1953 29.9033 91.1641 32.6992 91.1641ZM40.5479 93.3789H41.9834V90.9521L44.6426 83.8086H43.084L41.3135 89.2021H41.2246L39.4473 83.8086H37.875L40.5479 90.9727V93.3789ZM49.2646 83.0225C50.6865 83.0225 51.541 82.168 51.541 80.9854V80.9443H50.3721V80.9922C50.3721 81.5869 49.9688 82.0928 49.2715 82.0928C48.5469 82.0928 48.1641 81.5869 48.1641 80.9922V80.9443H47.002V80.9854C47.002 82.168 47.8564 83.0225 49.2646 83.0225ZM46.0518 91H47.5078L50.8096 85.9482H50.8711V91H52.3408V83.8086H50.8848L47.583 88.8398H47.5146V83.8086H46.0518V91ZM55.2266 82.7012C55.7119 82.7012 56.0879 82.3184 56.0879 81.8535C56.0879 81.3818 55.7119 80.999 55.2266 80.999C54.748 80.999 54.3652 81.3818 54.3652 81.8535C54.3652 82.3184 54.748 82.7012 55.2266 82.7012ZM54.4883 91H55.9648V83.8086H54.4883V91ZM59.8486 87.7939L62.4941 91H64.3193L61.168 87.1855L64.1963 83.8086H62.4531L59.8486 86.7754H59.5889V83.8086H58.1123V91H59.5889V87.7939H59.8486ZM71.0811 83.8086H65.0996V84.9844H67.3486V91H68.832V84.9844H71.0811V83.8086ZM73.4609 82.7012C73.9463 82.7012 74.3223 82.3184 74.3223 81.8535C74.3223 81.3818 73.9463 80.999 73.4609 80.999C72.9824 80.999 72.5996 81.3818 72.5996 81.8535C72.5996 82.3184 72.9824 82.7012 73.4609 82.7012ZM72.7227 91H74.1992V83.8086H72.7227V91ZM83.1562 93.3789H84.5918V91.0957C86.8613 91.0547 88.3721 89.6328 88.3721 87.4111V87.3975C88.3721 85.1689 86.8682 83.7607 84.5918 83.7197V81.4775H83.1562V83.7197C80.873 83.7539 79.3691 85.1758 79.3691 87.3975V87.4111C79.3691 89.6465 80.8662 91.0479 83.1562 91.0957V93.3789ZM83.1631 89.8994C81.7549 89.8584 80.8662 88.9355 80.8662 87.4111V87.3975C80.8662 85.8799 81.7617 84.9434 83.1631 84.9092V89.8994ZM84.585 89.8994V84.9092C85.9863 84.9502 86.875 85.873 86.875 87.3975V87.4111C86.875 88.9355 85.9795 89.8652 84.585 89.8994ZM90.1436 91H91.5996L94.9014 85.9482H94.9629V91H96.4326V83.8086H94.9766L91.6748 88.8398H91.6064V83.8086H90.1436V91ZM100.754 87.7734L100.952 84.9844H103.434V91H104.91V83.8086H99.6533L99.3936 87.6982C99.3047 89.0039 99.0518 89.749 98.3066 89.749C98.1221 89.749 97.9922 89.7217 97.9238 89.7012V90.9932C98.0264 91.0273 98.2314 91.0684 98.5117 91.0684C100.125 91.0684 100.61 89.79 100.754 87.7734ZM107.003 91H109.847C111.508 91 112.581 90.0361 112.581 88.5186V88.5049C112.581 86.9941 111.508 86.0303 109.847 86.0303H108.479V83.8086H107.003V91ZM109.703 87.1992C110.537 87.1992 111.07 87.7119 111.07 88.5049V88.5186C111.07 89.3115 110.544 89.8311 109.703 89.8311H108.479V87.1992H109.703ZM115.747 91V86.0098H115.795L117.935 90.7197H119.015L121.161 86.0098H121.209V91H122.651V83.8086H120.833L118.522 89.0791H118.468L116.178 83.8086H114.312V91H115.747ZM125.537 82.7012C126.022 82.7012 126.398 82.3184 126.398 81.8535C126.398 81.3818 126.022 80.999 125.537 80.999C125.059 80.999 124.676 81.3818 124.676 81.8535C124.676 82.3184 125.059 82.7012 125.537 82.7012ZM124.799 91H126.275V83.8086H124.799V91ZM134.384 92.9482H135.724V89.8311H134.616V83.8086H133.14V86.707H129.899V83.8086H128.423V91H129.899V87.876H133.14V91H134.384V92.9482ZM138.281 92.9482V91H143.586V92.9482H144.946V89.8174H143.832V83.8086H138.589L138.329 87.6641C138.261 88.6348 138.021 89.4893 137.495 89.8174H136.914V92.9482H138.281ZM142.349 89.8174H139.081V89.7832C139.43 89.3115 139.607 88.5869 139.662 87.7256L139.86 84.9912H142.349V89.8174ZM147.258 82.7012C147.743 82.7012 148.119 82.3184 148.119 81.8535C148.119 81.3818 147.743 80.999 147.258 80.999C146.779 80.999 146.396 81.3818 146.396 81.8535C146.396 82.3184 146.779 82.7012 147.258 82.7012ZM146.52 91H147.996V83.8086H146.52V91ZM158.567 87.7939L161.213 91H161.944V92.9482H163.284V89.8105H162.047L159.887 87.1855L162.915 83.8086H161.172L158.567 86.7754H158.308V83.8086H156.831V91H158.308V87.7939H158.567ZM167.558 91.1436C169.615 91.1436 170.969 89.7217 170.969 87.4043V87.3906C170.969 85.0869 169.602 83.6719 167.558 83.6719C165.514 83.6719 164.146 85.0938 164.146 87.3906V87.4043C164.146 89.7148 165.493 91.1436 167.558 91.1436ZM167.564 89.9062C166.409 89.9062 165.657 88.9971 165.657 87.4043V87.3906C165.657 85.8184 166.416 84.9092 167.558 84.9092C168.706 84.9092 169.465 85.8184 169.465 87.3906V87.4043C169.465 88.9902 168.72 89.9062 167.564 89.9062ZM175.823 91.1436C177.553 91.1436 178.756 90.0361 178.913 88.5938L178.92 88.5459H177.505L177.491 88.6006C177.313 89.3799 176.739 89.9062 175.83 89.9062C174.682 89.9062 173.923 88.9834 173.923 87.4111V87.4043C173.923 85.8662 174.668 84.9092 175.816 84.9092C176.78 84.9092 177.327 85.5039 177.484 86.208L177.498 86.2627H178.906L178.899 86.2148C178.776 84.8613 177.655 83.6719 175.81 83.6719C173.752 83.6719 172.412 85.1143 172.412 87.3906V87.3975C172.412 89.7012 173.725 91.1436 175.823 91.1436ZM180.589 91H183.433C185.094 91 186.167 90.0361 186.167 88.5186V88.5049C186.167 86.9941 185.094 86.0303 183.433 86.0303H182.065V83.8086H180.589V91ZM187.021 91H188.505V83.8086H187.021V91ZM183.289 87.1992C184.123 87.1992 184.656 87.7119 184.656 88.5049V88.5186C184.656 89.3115 184.13 89.8311 183.289 89.8311H182.065V87.1992H183.289ZM192.026 91V86.0098H192.074L194.214 90.7197H195.294L197.44 86.0098H197.488V91H198.931V83.8086H197.112L194.802 89.0791H194.747L192.457 83.8086H190.591V91H192.026ZM201.017 91H210.252V83.8086H208.775V89.8174H206.376V83.8086H204.893V89.8174H202.493V83.8086H201.017V91ZM214.457 91.1299C215.414 91.1299 216.241 90.6377 216.658 89.8652H216.692V91H218.169V86.0439C218.169 84.6016 217.055 83.6719 215.298 83.6719C213.527 83.6719 212.454 84.6221 212.352 85.8594L212.345 85.9346H213.739L213.753 85.873C213.876 85.2988 214.402 84.8955 215.257 84.8955C216.173 84.8955 216.692 85.374 216.692 86.167V86.707L214.73 86.8232C213.028 86.9258 212.058 87.6914 212.058 88.9424V88.9561C212.058 90.248 213.021 91.1299 214.457 91.1299ZM213.548 88.9219V88.9082C213.548 88.2998 214.04 87.9102 214.929 87.8555L216.692 87.7461V88.3066C216.692 89.2432 215.899 89.9473 214.86 89.9473C214.067 89.9473 213.548 89.5508 213.548 88.9219ZM229.04 83.8086H223.059V84.9844H225.308V91H226.791V84.9844H229.04V83.8086ZM233.573 91.1436C235.631 91.1436 236.984 89.7217 236.984 87.4043V87.3906C236.984 85.0869 235.617 83.6719 233.573 83.6719C231.529 83.6719 230.162 85.0938 230.162 87.3906V87.4043C230.162 89.7148 231.509 91.1436 233.573 91.1436ZM233.573 84.9092C234.592 84.9092 235.296 85.6201 235.446 86.8711H231.7C231.851 85.6201 232.562 84.9092 233.573 84.9092ZM233.58 89.9062C232.521 89.9062 231.803 89.1475 231.687 87.8008H235.46C235.344 89.1406 234.633 89.9062 233.58 89.9062ZM240.725 87.7734L240.923 84.9844H243.404V91H244.881V83.8086H239.624L239.364 87.6982C239.275 89.0039 239.022 89.749 238.277 89.749C238.093 89.749 237.963 89.7217 237.895 89.7012V90.9932C237.997 91.0273 238.202 91.0684 238.482 91.0684C240.096 91.0684 240.581 89.79 240.725 87.7734ZM250.043 91.1436C251.786 91.1436 252.9 90.1045 253.126 88.9629L253.146 88.8877H251.738L251.718 88.9424C251.533 89.4824 250.952 89.9336 250.077 89.9336C248.901 89.9336 248.156 89.1406 248.129 87.7803H253.222V87.2812C253.222 85.1211 251.984 83.6719 249.968 83.6719C247.951 83.6719 246.652 85.1758 246.652 87.4248V87.4316C246.652 89.7012 247.931 91.1436 250.043 91.1436ZM249.975 84.8818C250.938 84.8818 251.643 85.4902 251.759 86.7344H248.149C248.286 85.5312 249.018 84.8818 249.975 84.8818ZM256.429 91V86.0098H256.477L258.616 90.7197H259.696L261.843 86.0098H261.891V91H263.333V83.8086H261.515L259.204 89.0791H259.149L256.859 83.8086H254.993V91H256.429ZM268.509 91.1436C270.238 91.1436 271.441 90.0361 271.599 88.5938L271.605 88.5459H270.19L270.177 88.6006C269.999 89.3799 269.425 89.9062 268.516 89.9062C267.367 89.9062 266.608 88.9834 266.608 87.4111V87.4043C266.608 85.8662 267.354 84.9092 268.502 84.9092C269.466 84.9092 270.013 85.5039 270.17 86.208L270.184 86.2627H271.592L271.585 86.2148C271.462 84.8613 270.341 83.6719 268.495 83.6719C266.438 83.6719 265.098 85.1143 265.098 87.3906V87.3975C265.098 89.7012 266.41 91.1436 268.509 91.1436ZM274.074 82.7012C274.56 82.7012 274.936 82.3184 274.936 81.8535C274.936 81.3818 274.56 80.999 274.074 80.999C273.596 80.999 273.213 81.3818 273.213 81.8535C273.213 82.3184 273.596 82.7012 274.074 82.7012ZM273.336 91H274.812V83.8086H273.336V91ZM279.551 91.1436C281.314 91.1436 282.483 90.248 282.483 88.9082V88.8945C282.483 88.0537 281.964 87.4795 281.014 87.2881V87.2334C281.786 87.0557 282.285 86.4473 282.285 85.6748V85.6611C282.285 84.4307 281.273 83.6719 279.619 83.6719C277.999 83.6719 276.939 84.4375 276.769 85.7158L276.762 85.7705H278.17L278.177 85.7227C278.286 85.1758 278.826 84.8408 279.599 84.8408C280.378 84.8408 280.843 85.2031 280.843 85.8184V85.832C280.843 86.4746 280.398 86.8027 279.53 86.8027H278.498V87.876H279.537C280.535 87.876 281.014 88.2041 281.014 88.8945V88.9082C281.014 89.5645 280.453 89.9678 279.544 89.9678C278.73 89.9678 278.197 89.6533 278.033 89.0723L278.013 89.0039H276.563L276.57 89.0654C276.714 90.3369 277.869 91.1436 279.551 91.1436ZM16.8896 105.809H10.9082V106.984H13.1572V113H14.6406V106.984H16.8896V105.809ZM21.4023 113.144C23.1455 113.144 24.2598 112.104 24.4854 110.963L24.5059 110.888H23.0977L23.0771 110.942C22.8926 111.482 22.3115 111.934 21.4365 111.934C20.2607 111.934 19.5156 111.141 19.4883 109.78H24.5811V109.281C24.5811 107.121 23.3438 105.672 21.3271 105.672C19.3105 105.672 18.0117 107.176 18.0117 109.425V109.432C18.0117 111.701 19.29 113.144 21.4023 113.144ZM21.334 106.882C22.2979 106.882 23.002 107.49 23.1182 108.734H19.5088C19.6455 107.531 20.377 106.882 21.334 106.882ZM28.3281 109.773L28.5264 106.984H31.0078V113H32.4844V105.809H27.2275L26.9678 109.698C26.8789 111.004 26.626 111.749 25.8809 111.749C25.6963 111.749 25.5664 111.722 25.498 111.701V112.993C25.6006 113.027 25.8057 113.068 26.0859 113.068C27.6992 113.068 28.1846 111.79 28.3281 109.773ZM37.6465 113.144C39.3896 113.144 40.5039 112.104 40.7295 110.963L40.75 110.888H39.3418L39.3213 110.942C39.1367 111.482 38.5557 111.934 37.6807 111.934C36.5049 111.934 35.7598 111.141 35.7324 109.78H40.8252V109.281C40.8252 107.121 39.5879 105.672 37.5713 105.672C35.5547 105.672 34.2559 107.176 34.2559 109.425V109.432C34.2559 111.701 35.5342 113.144 37.6465 113.144ZM37.5781 106.882C38.542 106.882 39.2461 107.49 39.3623 108.734H35.7529C35.8896 107.531 36.6211 106.882 37.5781 106.882ZM46.0625 115.379H47.498V113.096C49.7676 113.055 51.2783 111.633 51.2783 109.411V109.397C51.2783 107.169 49.7744 105.761 47.498 105.72V103.478H46.0625V105.72C43.7793 105.754 42.2754 107.176 42.2754 109.397V109.411C42.2754 111.646 43.7725 113.048 46.0625 113.096V115.379ZM46.0693 111.899C44.6611 111.858 43.7725 110.936 43.7725 109.411V109.397C43.7725 107.88 44.668 106.943 46.0693 106.909V111.899ZM47.4912 111.899V106.909C48.8926 106.95 49.7812 107.873 49.7812 109.397V109.411C49.7812 110.936 48.8857 111.865 47.4912 111.899ZM56.1396 113.144C58.1973 113.144 59.5508 111.722 59.5508 109.404V109.391C59.5508 107.087 58.1836 105.672 56.1396 105.672C54.0957 105.672 52.7285 107.094 52.7285 109.391V109.404C52.7285 111.715 54.0752 113.144 56.1396 113.144ZM56.1465 111.906C54.9912 111.906 54.2393 110.997 54.2393 109.404V109.391C54.2393 107.818 54.998 106.909 56.1396 106.909C57.2881 106.909 58.0469 107.818 58.0469 109.391V109.404C58.0469 110.99 57.3018 111.906 56.1465 111.906ZM66.0322 113H67.5088V105.809H66.0322V108.707H62.792V105.809H61.3154V113H62.792V109.876H66.0322V113ZM74.3115 113H75.7881V105.809H74.3115V108.707H71.0713V105.809H69.5947V113H71.0713V109.876H74.3115V113ZM79.9863 113.13C80.9434 113.13 81.7705 112.638 82.1875 111.865H82.2217V113H83.6982V108.044C83.6982 106.602 82.584 105.672 80.8271 105.672C79.0566 105.672 77.9834 106.622 77.8809 107.859L77.874 107.935H79.2686L79.2822 107.873C79.4053 107.299 79.9316 106.896 80.7861 106.896C81.7021 106.896 82.2217 107.374 82.2217 108.167V108.707L80.2598 108.823C78.5576 108.926 77.5869 109.691 77.5869 110.942V110.956C77.5869 112.248 78.5508 113.13 79.9863 113.13ZM79.0771 110.922V110.908C79.0771 110.3 79.5693 109.91 80.458 109.855L82.2217 109.746V110.307C82.2217 111.243 81.4287 111.947 80.3896 111.947C79.5967 111.947 79.0771 111.551 79.0771 110.922ZM90.4736 113H91.9502V105.809H90.4736V108.707H87.2334V105.809H85.7568V113H87.2334V109.876H90.4736V113ZM93.5303 114.982H94.5693L95.5674 111.482H94.0908L93.5303 114.982ZM100.286 113H101.763V106.984H104.935V113H106.418V105.809H100.286V113ZM110.746 109.773L110.944 106.984H113.426V113H114.902V105.809H109.646L109.386 109.698C109.297 111.004 109.044 111.749 108.299 111.749C108.114 111.749 107.984 111.722 107.916 111.701V112.993C108.019 113.027 108.224 113.068 108.504 113.068C110.117 113.068 110.603 111.79 110.746 109.773ZM119.107 113.13C120.064 113.13 120.892 112.638 121.309 111.865H121.343V113H122.819V108.044C122.819 106.602 121.705 105.672 119.948 105.672C118.178 105.672 117.104 106.622 117.002 107.859L116.995 107.935H118.39L118.403 107.873C118.526 107.299 119.053 106.896 119.907 106.896C120.823 106.896 121.343 107.374 121.343 108.167V108.707L119.381 108.823C117.679 108.926 116.708 109.691 116.708 110.942V110.956C116.708 112.248 117.672 113.13 119.107 113.13ZM118.198 110.922V110.908C118.198 110.3 118.69 109.91 119.579 109.855L121.343 109.746V110.307C121.343 111.243 120.55 111.947 119.511 111.947C118.718 111.947 118.198 111.551 118.198 110.922ZM129.595 113H131.071V105.809H129.595V108.707H126.354V105.809H124.878V113H126.354V109.876H129.595V113ZM133.157 113H142.393V105.809H140.916V111.817H138.517V105.809H137.033V111.817H134.634V105.809H133.157V113ZM147.555 113.144C149.298 113.144 150.412 112.104 150.638 110.963L150.658 110.888H149.25L149.229 110.942C149.045 111.482 148.464 111.934 147.589 111.934C146.413 111.934 145.668 111.141 145.641 109.78H150.733V109.281C150.733 107.121 149.496 105.672 147.479 105.672C145.463 105.672 144.164 107.176 144.164 109.425V109.432C144.164 111.701 145.442 113.144 147.555 113.144ZM147.486 106.882C148.45 106.882 149.154 107.49 149.271 108.734H145.661C145.798 107.531 146.529 106.882 147.486 106.882ZM157.714 105.809H151.732V106.984H153.981V113H155.465V106.984H157.714V105.809ZM164.763 105.809H158.781V106.984H161.03V113H162.514V106.984H164.763V105.809ZM169.275 113.144C171.019 113.144 172.133 112.104 172.358 110.963L172.379 110.888H170.971L170.95 110.942C170.766 111.482 170.185 111.934 169.31 111.934C168.134 111.934 167.389 111.141 167.361 109.78H172.454V109.281C172.454 107.121 171.217 105.672 169.2 105.672C167.184 105.672 165.885 107.176 165.885 109.425V109.432C165.885 111.701 167.163 113.144 169.275 113.144ZM169.207 106.882C170.171 106.882 170.875 107.49 170.991 108.734H167.382C167.519 107.531 168.25 106.882 169.207 106.882ZM178.942 113H180.419V105.809H178.942V108.707H175.702V105.809H174.226V113H175.702V109.876H178.942V113ZM181.999 114.982H183.038L184.036 111.482H182.56L181.999 114.982ZM193.472 113H194.948V105.809H193.472V108.707H190.231V105.809H188.755V113H190.231V109.876H193.472V113ZM200.124 113.144C202.182 113.144 203.535 111.722 203.535 109.404V109.391C203.535 107.087 202.168 105.672 200.124 105.672C198.08 105.672 196.713 107.094 196.713 109.391V109.404C196.713 111.715 198.06 113.144 200.124 113.144ZM200.131 111.906C198.976 111.906 198.224 110.997 198.224 109.404V109.391C198.224 107.818 198.982 106.909 200.124 106.909C201.272 106.909 202.031 107.818 202.031 109.391V109.404C202.031 110.99 201.286 111.906 200.131 111.906ZM205.956 115.399C207.364 115.399 208.116 114.825 208.649 113.335L211.329 105.809H209.771L207.959 111.66H207.911L206.1 105.809H204.5L207.118 113.007L206.995 113.349C206.749 114.046 206.366 114.23 205.669 114.23C205.471 114.23 205.3 114.203 205.184 114.176V115.331C205.361 115.365 205.669 115.399 205.956 115.399ZM218.282 105.809H212.301V106.984H214.55V113H216.033V106.984H218.282V105.809ZM222.925 113.144C225.044 113.144 226.35 111.756 226.35 109.5V109.486C226.35 107.388 225.105 106.041 223.164 106.041C222.029 106.041 221.154 106.499 220.689 107.354H220.655L220.669 107.258C220.949 105.296 221.564 104.462 223.451 104.394L224.08 104.366C224.907 104.339 225.639 104.182 225.878 103.99V102.767C225.475 102.965 224.736 103.095 223.998 103.122L223.355 103.143C220.628 103.245 219.466 104.852 219.466 108.83V108.844C219.466 111.674 220.676 113.144 222.925 113.144ZM222.911 111.906C221.681 111.906 220.977 111.045 220.977 109.521V109.507C220.977 108.064 221.688 107.251 222.911 107.251C224.128 107.251 224.839 108.064 224.839 109.507V109.521C224.839 111.045 224.128 111.906 222.911 111.906ZM228.784 115.399C230.192 115.399 230.944 114.825 231.478 113.335L234.157 105.809H232.599L230.787 111.66H230.739L228.928 105.809H227.328L229.946 113.007L229.823 113.349C229.577 114.046 229.194 114.23 228.497 114.23C228.299 114.23 228.128 114.203 228.012 114.176V115.331C228.189 115.365 228.497 115.399 228.784 115.399ZM237.378 109.794L240.023 113H241.849L238.697 109.186L241.726 105.809H239.982L237.378 108.775H237.118V105.809H235.642V113H237.118V109.794H237.378ZM248.61 105.809H242.629V106.984H244.878V113H246.361V106.984H248.61V105.809ZM252.07 113.13C253.027 113.13 253.854 112.638 254.271 111.865H254.306V113H255.782V108.044C255.782 106.602 254.668 105.672 252.911 105.672C251.141 105.672 250.067 106.622 249.965 107.859L249.958 107.935H251.353L251.366 107.873C251.489 107.299 252.016 106.896 252.87 106.896C253.786 106.896 254.306 107.374 254.306 108.167V108.707L252.344 108.823C250.642 108.926 249.671 109.691 249.671 110.942V110.956C249.671 112.248 250.635 113.13 252.07 113.13ZM251.161 110.922V110.908C251.161 110.3 251.653 109.91 252.542 109.855L254.306 109.746V110.307C254.306 111.243 253.513 111.947 252.474 111.947C251.681 111.947 251.161 111.551 251.161 110.922ZM262.558 113H264.034V105.809H262.558V108.707H259.317V105.809H257.841V113H259.317V109.876H262.558V113ZM271.2 109.794L273.846 113H274.577V114.948H275.917V111.811H274.68L272.52 109.186L275.548 105.809H273.805L271.2 108.775H270.94V105.809H269.464V113H270.94V109.794H271.2ZM279.473 113.13C280.43 113.13 281.257 112.638 281.674 111.865H281.708V113H283.185V108.044C283.185 106.602 282.07 105.672 280.313 105.672C278.543 105.672 277.47 106.622 277.367 107.859L277.36 107.935H278.755L278.769 107.873C278.892 107.299 279.418 106.896 280.272 106.896C281.188 106.896 281.708 107.374 281.708 108.167V108.707L279.746 108.823C278.044 108.926 277.073 109.691 277.073 110.942V110.956C277.073 112.248 278.037 113.13 279.473 113.13ZM278.563 110.922V110.908C278.563 110.3 279.056 109.91 279.944 109.855L281.708 109.746V110.307C281.708 111.243 280.915 111.947 279.876 111.947C279.083 111.947 278.563 111.551 278.563 110.922ZM285.243 115.393H286.72V111.79H286.754C287.178 112.624 288.005 113.144 289.023 113.144C290.828 113.144 292.011 111.701 292.011 109.411V109.404C292.011 107.107 290.835 105.672 289.003 105.672C287.978 105.672 287.185 106.191 286.754 107.046H286.72V105.809H285.243V115.393ZM288.62 111.872C287.506 111.872 286.713 110.901 286.713 109.411V109.404C286.713 107.907 287.499 106.937 288.62 106.937C289.782 106.937 290.507 107.873 290.507 109.404V109.411C290.507 110.929 289.782 111.872 288.62 111.872ZM295.895 113.13C296.852 113.13 297.679 112.638 298.096 111.865H298.13V113H299.606V108.044C299.606 106.602 298.492 105.672 296.735 105.672C294.965 105.672 293.892 106.622 293.789 107.859L293.782 107.935H295.177L295.19 107.873C295.313 107.299 295.84 106.896 296.694 106.896C297.61 106.896 298.13 107.374 298.13 108.167V108.707L296.168 108.823C294.466 108.926 293.495 109.691 293.495 110.942V110.956C293.495 112.248 294.459 113.13 295.895 113.13ZM294.985 110.922V110.908C294.985 110.3 295.478 109.91 296.366 109.855L298.13 109.746V110.307C298.13 111.243 297.337 111.947 296.298 111.947C295.505 111.947 294.985 111.551 294.985 110.922Z" fill="#6B7280"/>
</svg>
