<svg width="327" height="58" viewBox="0 0 327 58" fill="none" xmlns="http://www.w3.org/2000/svg">
<path d="M1.53809 54.2266V52H9.78809V54.2266H11.0928V50.7344H9.68652V40.7266H2.70996L2.28027 47.8203C2.19434 49.2969 1.88965 50.2969 1.06934 50.7344H0.233398V54.2266H1.53809ZM3.60059 47.8516L3.96777 41.9922H8.28027V50.7344H2.81152V50.6719C3.36621 50 3.52246 49.1406 3.60059 47.8516ZM16.3662 52.1562C18.1396 52.1562 19.4678 51.0938 19.7334 49.75L19.749 49.6719H18.4131L18.3896 49.7422C18.1553 50.4375 17.4287 50.9531 16.3975 50.9531C14.9521 50.9531 14.0303 49.9766 13.999 48.3047H19.8506V47.8047C19.8506 45.3672 18.499 43.7188 16.2803 43.7188C14.0615 43.7188 12.624 45.4453 12.624 47.9609V47.9688C12.624 50.5234 14.0303 52.1562 16.3662 52.1562ZM16.2725 44.9219C17.46 44.9219 18.335 45.6641 18.4678 47.2422H14.0225C14.1709 45.7266 15.0928 44.9219 16.2725 44.9219ZM21.8818 54.7344H23.2412V50.6406H23.2725C23.7803 51.5781 24.7256 52.1562 25.874 52.1562C27.9131 52.1562 29.3037 50.5078 29.3037 47.9453V47.9375C29.3037 45.375 27.9287 43.7188 25.8506 43.7188C24.6865 43.7188 23.7803 44.3047 23.2725 45.25H23.2412V43.875H21.8818V54.7344ZM25.585 50.9531C24.2178 50.9531 23.2334 49.7578 23.2334 47.9453V47.9375C23.2334 46.1172 24.21 44.9219 25.585 44.9219C27.0225 44.9219 27.9131 46.0703 27.9131 47.9375V47.9453C27.9131 49.7969 27.0225 50.9531 25.585 50.9531ZM34.6787 52.1562C36.4521 52.1562 37.7803 51.0938 38.0459 49.75L38.0615 49.6719H36.7256L36.7021 49.7422C36.4678 50.4375 35.7412 50.9531 34.71 50.9531C33.2646 50.9531 32.3428 49.9766 32.3115 48.3047H38.1631V47.8047C38.1631 45.3672 36.8115 43.7188 34.5928 43.7188C32.374 43.7188 30.9365 45.4453 30.9365 47.9609V47.9688C30.9365 50.5234 32.3428 52.1562 34.6787 52.1562ZM34.585 44.9219C35.7725 44.9219 36.6475 45.6641 36.7803 47.2422H32.335C32.4834 45.7266 33.4053 44.9219 34.585 44.9219ZM41.8584 48.25L45.1006 52H46.8193L43.085 47.7188L46.71 43.875H45.0615L41.8584 47.3125H41.5459V43.875H40.1865V52H41.5459V48.25H41.8584ZM54.2412 43.875H47.6475V45H50.2646V52H51.624V45H54.2412V43.875ZM59.1943 52.1562C60.9678 52.1562 62.2959 51.0938 62.5615 49.75L62.5771 49.6719H61.2412L61.2178 49.7422C60.9834 50.4375 60.2568 50.9531 59.2256 50.9531C57.7803 50.9531 56.8584 49.9766 56.8271 48.3047H62.6787V47.8047C62.6787 45.3672 61.3271 43.7188 59.1084 43.7188C56.8896 43.7188 55.4521 45.4453 55.4521 47.9609V47.9688C55.4521 50.5234 56.8584 52.1562 59.1943 52.1562ZM59.1006 44.9219C60.2881 44.9219 61.1631 45.6641 61.2959 47.2422H56.8506C56.999 45.7266 57.9209 44.9219 59.1006 44.9219ZM64.71 54.7344H66.0693V50.6406H66.1006C66.6084 51.5781 67.5537 52.1562 68.7021 52.1562C70.7412 52.1562 72.1318 50.5078 72.1318 47.9453V47.9375C72.1318 45.375 70.7568 43.7188 68.6787 43.7188C67.5146 43.7188 66.6084 44.3047 66.1006 45.25H66.0693V43.875H64.71V54.7344ZM68.4131 50.9531C67.0459 50.9531 66.0615 49.7578 66.0615 47.9453V47.9375C66.0615 46.1172 67.0381 44.9219 68.4131 44.9219C69.8506 44.9219 70.7412 46.0703 70.7412 47.9375V47.9453C70.7412 49.7969 69.8506 50.9531 68.4131 50.9531ZM74.46 54.2266V52H80.7646V54.2266H82.0303V50.875H80.7412V43.875H75.1475L74.835 48.3828C74.7568 49.4766 74.4678 50.4844 73.874 50.875H73.1943V54.2266H74.46ZM79.3818 50.875H75.4053V50.8438C75.8115 50.3203 76.0225 49.4375 76.0928 48.4141L76.3428 45H79.3818V50.875ZM84.5225 42.5C84.999 42.5 85.374 42.1172 85.374 41.6484C85.374 41.1719 84.999 40.7969 84.5225 40.7969C84.0537 40.7969 83.6709 41.1719 83.6709 41.6484C83.6709 42.1172 84.0537 42.5 84.5225 42.5ZM83.8428 52H85.2021V43.875H83.8428V52ZM97.4287 43.875H90.835V45H93.4521V52H94.8115V45H97.4287V43.875ZM102.405 52.1562C104.647 52.1562 106.163 50.5312 106.163 47.9375V47.9219C106.163 45.3281 104.64 43.7188 102.397 43.7188C100.155 43.7188 98.6396 45.3359 98.6396 47.9219V47.9375C98.6396 50.5234 100.147 52.1562 102.405 52.1562ZM102.413 50.9531C100.976 50.9531 100.03 49.8516 100.03 47.9375V47.9219C100.03 46.0234 100.983 44.9219 102.397 44.9219C103.835 44.9219 104.772 46.0156 104.772 47.9219V47.9375C104.772 49.8438 103.843 50.9531 102.413 50.9531ZM110.132 48.4219L110.39 45H113.515V52H114.874V43.875H109.163L108.843 48.3906C108.733 49.8828 108.437 50.8281 107.569 50.8281C107.358 50.8281 107.21 50.7969 107.14 50.7734V52C107.249 52.0391 107.452 52.0781 107.71 52.0781C109.437 52.0781 109.96 50.6641 110.132 48.4219ZM123.241 43.875H116.647V45H119.265V52H120.624V45H123.241V43.875ZM124.999 52H127.882C129.741 52 130.937 50.9297 130.937 49.2422V49.2266C130.937 47.5391 129.741 46.4688 127.882 46.4688H126.358V43.875H124.999V52ZM131.968 52H133.327V43.875H131.968V52ZM127.858 47.5938C128.89 47.5938 129.546 48.2344 129.546 49.2266V49.2422C129.546 50.2266 128.897 50.875 127.858 50.875H126.358V47.5938H127.858ZM135.741 54.7344H137.101V50.6406H137.132C137.64 51.5781 138.585 52.1562 139.733 52.1562C141.772 52.1562 143.163 50.5078 143.163 47.9453V47.9375C143.163 45.375 141.788 43.7188 139.71 43.7188C138.546 43.7188 137.64 44.3047 137.132 45.25H137.101V43.875H135.741V54.7344ZM139.444 50.9531C138.077 50.9531 137.093 49.7578 137.093 47.9453V47.9375C137.093 46.1172 138.069 44.9219 139.444 44.9219C140.882 44.9219 141.772 46.0703 141.772 47.9375V47.9453C141.772 49.7969 140.882 50.9531 139.444 50.9531ZM145.187 52H148.069C149.929 52 151.124 50.9297 151.124 49.2422V49.2266C151.124 47.5391 149.929 46.4688 148.069 46.4688H146.546V43.875H145.187V52ZM152.155 52H153.515V43.875H152.155V52ZM148.046 47.5938C149.077 47.5938 149.733 48.2344 149.733 49.2266V49.2422C149.733 50.2266 149.085 50.875 148.046 50.875H146.546V47.5938H148.046ZM162.647 54.2266H163.882V50.875H162.616V43.875H161.257V47.2266H157.28V43.875H155.921V52H157.28V48.3516H161.257V52H162.647V54.2266ZM165.593 52H168.476C170.335 52 171.53 50.9297 171.53 49.2422V49.2266C171.53 47.5391 170.335 46.4688 168.476 46.4688H166.952V43.875H165.593V52ZM172.562 52H173.921V43.875H172.562V52ZM168.452 47.5938C169.483 47.5938 170.14 48.2344 170.14 49.2266V49.2422C170.14 50.2266 169.491 50.875 168.452 50.875H166.952V47.5938H168.452ZM179.038 52.1562C180.937 52.1562 182.21 51.1406 182.21 49.6328V49.6172C182.21 48.6797 181.632 48.0312 180.585 47.8047V47.7422C181.413 47.5547 181.983 46.8281 181.983 45.9609V45.9453C181.983 44.5703 180.897 43.7188 179.124 43.7188C177.437 43.7188 176.257 44.5625 176.069 45.875L176.062 45.9297H177.382L177.39 45.8906C177.515 45.2578 178.194 44.8438 179.124 44.8438C180.085 44.8438 180.655 45.2969 180.655 46.0547V46.0703C180.655 46.875 180.116 47.2812 179.038 47.2812H177.819V48.4062H179.038C180.28 48.4062 180.874 48.8125 180.874 49.6797V49.6953C180.874 50.5156 180.163 51.0312 179.038 51.0312C178.069 51.0312 177.421 50.6484 177.226 49.9688L177.202 49.8906H175.827L175.835 49.9531C175.999 51.2812 177.272 52.1562 179.038 52.1562Z" fill="#6B7280"/>
<path d="M5.54199 23H9.08105V9.00781H13.9678V6.08984H0.643555V9.00781H5.54199V23ZM17.8662 8.82031C18.8975 8.82031 19.6943 8.01172 19.6943 7.03906C19.6943 6.06641 18.8975 5.25781 17.8662 5.25781C16.8467 5.25781 16.0381 6.06641 16.0381 7.03906C16.0381 8.01172 16.8467 8.82031 17.8662 8.82031ZM16.1553 23H19.5771V10.4375H16.1553V23ZM22.5498 27.1016H25.9717V20.8555H26.042C26.7217 22.3438 28.1279 23.2578 29.9326 23.2578C33.0732 23.2578 35.0068 20.7969 35.0068 16.7188V16.707C35.0068 12.6172 33.0732 10.1797 29.8857 10.1797C28.0928 10.1797 26.7334 11.1055 26.042 12.6289H25.9717V10.4375H22.5498V27.1016ZM28.749 20.4219C27.0967 20.4219 25.9482 18.9922 25.9482 16.7305V16.7188C25.9482 14.4453 27.0967 13.0156 28.749 13.0156C30.4482 13.0156 31.5264 14.4102 31.5264 16.707V16.7188C31.5264 19.0039 30.46 20.4219 28.749 20.4219ZM41.3193 17.7266L45.2451 23H49.3584L44.2842 16.2617L49.0654 10.4375H45.1748L41.3193 15.3711H40.9092V10.4375H37.4873V23H40.9092V17.7266H41.3193ZM56.6436 23.2578C60.2178 23.2578 61.9521 21.1367 62.3506 19.2852L62.374 19.1562H59.2334L59.21 19.2266C58.9756 19.9297 58.1201 20.7031 56.7139 20.7031C54.9678 20.7031 53.8779 19.5312 53.8311 17.5273H62.4795V16.4727C62.4795 12.6758 60.1826 10.1797 56.5029 10.1797C52.8115 10.1797 50.4561 12.7344 50.4561 16.7305V16.7422C50.4561 20.7617 52.7881 23.2578 56.6436 23.2578ZM56.5615 12.7344C57.9678 12.7344 58.9873 13.6367 59.1982 15.3711H53.8779C54.1006 13.6719 55.1436 12.7344 56.5615 12.7344ZM69.167 17.1758L69.4248 13.0273H72.8818V23H76.3037V10.4375H66.4834L66.1084 16.8945C65.9795 19.1445 65.5693 20.1641 64.3506 20.1641C64.0342 20.1641 63.7998 20.1289 63.6592 20.0938V22.9648C63.8584 23.0234 64.3037 23.1172 64.9365 23.1172C68.0186 23.1172 68.9443 20.8086 69.167 17.1758ZM81.21 27.1367C84.0107 27.1367 85.6982 26.1875 86.6826 23.2227L90.9834 10.4375H87.374L84.7256 20.2578H84.6201L81.9717 10.4375H78.2217L82.6514 23L82.5107 23.4102C82.2061 24.2656 81.6436 24.5586 80.624 24.5586C80.1084 24.5586 79.71 24.4883 79.4756 24.4414V26.9844C79.874 27.0547 80.542 27.1367 81.21 27.1367Z" fill="#111827"/>
</svg>
