<svg width="327" height="22" viewBox="0 0 327 22" fill="none" xmlns="http://www.w3.org/2000/svg">
<path d="M136.178 16V11.666H136.547L140.272 15.9795V16H141.12V17.9482H142.72V14.5166H141.229L138.03 10.8252L142.152 6.13574H140.108L136.547 10.3057H136.178V6.13574H134.414V16H136.178ZM144.218 16.4922H145.975V18.3857H147.636V16.4922H149.365V15.5078H147.807L150.288 8.75391H148.497L146.85 13.9902H146.768L145.106 8.75391H143.288L145.797 15.5078H144.218V16.4922ZM151.643 16H153.345V10.0664H156.325V16H158.034V8.75391H151.643V16ZM160.059 16H161.727L164.851 11.1328H164.919V16H166.601V8.75391H164.933L161.809 13.5869H161.74V8.75391H160.059V16ZM172.809 16H174.483V8.75391H171.359C169.637 8.75391 168.522 9.7041 168.522 11.2217V11.2354C168.522 12.2539 169.131 12.999 170.136 13.3066L168.188 16H170.095L171.79 13.5732H172.809V16ZM171.489 12.3223C170.71 12.3223 170.231 11.8643 170.231 11.2285V11.2148C170.231 10.4971 170.71 10.0596 171.489 10.0596H172.809V12.3223H171.489ZM183.003 16.1436C184.835 16.1436 186.065 14.9951 186.195 13.4844V13.4365H184.589L184.575 13.498C184.418 14.2568 183.878 14.7695 183.017 14.7695C181.937 14.7695 181.239 13.8945 181.239 12.3838V12.377C181.239 10.8936 181.93 9.98438 183.003 9.98438C183.912 9.98438 184.432 10.5518 184.575 11.2559L184.582 11.3174H186.188L186.182 11.2627C186.079 9.81348 184.896 8.60352 182.989 8.60352C180.87 8.60352 179.503 10.0527 179.503 12.3633V12.3701C179.503 14.6943 180.85 16.1436 183.003 16.1436ZM191.029 16.1436C193.155 16.1436 194.536 14.7285 194.536 12.377V12.3633C194.536 10.0254 193.135 8.60352 191.029 8.60352C188.917 8.60352 187.522 10.0391 187.522 12.3633V12.377C187.522 14.7217 188.896 16.1436 191.029 16.1436ZM191.029 9.98438C191.966 9.98438 192.615 10.6406 192.766 11.8096H189.293C189.45 10.6475 190.1 9.98438 191.029 9.98438ZM191.036 14.7695C190.059 14.7695 189.396 14.0586 189.279 12.8008H192.786C192.663 14.0518 192.007 14.7695 191.036 14.7695ZM199.015 16.1436C200.86 16.1436 202.07 15.248 202.07 13.8877V13.874C202.07 13.0195 201.544 12.4453 200.566 12.2539V12.1992C201.373 12.0215 201.872 11.4199 201.872 10.6475V10.6338C201.872 9.37598 200.819 8.60352 199.083 8.60352C197.36 8.60352 196.273 9.39648 196.096 10.7773L196.089 10.8252H197.695L197.702 10.7773C197.812 10.2373 198.304 9.92285 199.049 9.92285C199.78 9.92285 200.211 10.2578 200.211 10.832V10.8457C200.211 11.4404 199.801 11.748 198.98 11.748H197.976V12.8965H198.994C199.924 12.8965 200.382 13.2041 200.382 13.8398V13.8535C200.382 14.4551 199.855 14.8242 199.008 14.8242C198.222 14.8242 197.716 14.5303 197.559 13.9629L197.538 13.8945H195.897L195.904 13.9492C196.055 15.3164 197.23 16.1436 199.015 16.1436ZM204.73 17.9482V16H209.878V17.9482H211.437V14.667H210.329V8.75391H204.819L204.566 12.5342C204.498 13.5117 204.279 14.3525 203.746 14.667H203.172V17.9482H204.73ZM208.627 14.667H205.517V14.6328C205.865 14.1475 206.029 13.4502 206.084 12.623L206.269 10.0869H208.627V14.667ZM213.782 7.71484C214.315 7.71484 214.732 7.29102 214.732 6.78516C214.732 6.26562 214.315 5.84863 213.782 5.84863C213.249 5.84863 212.832 6.26562 212.832 6.78516C212.832 7.29102 213.249 7.71484 213.782 7.71484ZM212.928 16H214.637V8.75391H212.928V16ZM220.251 16.4922H222.008V18.3857H223.669V16.4922H225.398V15.5078H223.84L226.321 8.75391H224.53L222.883 13.9902H222.801L221.14 8.75391H219.321L221.83 15.5078H220.251V16.4922ZM229.303 16V11.0439H229.351L231.388 15.665H232.591L234.628 11.0439H234.683V16H236.31V8.75391H234.17L232.037 13.8125H231.982L229.856 8.75391H227.676V16H229.303ZM238.334 16H241.431C243.119 16 244.206 15.0156 244.206 13.4707V13.457C244.206 11.9121 243.119 10.9277 241.431 10.9277H240.036V8.75391H238.334V16ZM245.026 16H246.729V8.75391H245.026V16ZM241.191 12.2402C241.971 12.2402 242.47 12.7188 242.47 13.457V13.4707C242.47 14.2021 241.978 14.6875 241.191 14.6875H240.036V12.2402H241.191ZM254.42 8.75391H248.274V10.0732H250.496V16H252.198V10.0732H254.42V8.75391ZM261.646 8.75391H255.501V10.0732H257.723V16H259.425V10.0732H261.646V8.75391ZM263.199 16H266.296C267.984 16 269.071 15.0156 269.071 13.4707V13.457C269.071 11.9121 267.984 10.9277 266.296 10.9277H264.901V8.75391H263.199V16ZM269.892 16H271.594V8.75391H269.892V16ZM266.057 12.2402C266.836 12.2402 267.335 12.7188 267.335 13.457V13.4707C267.335 14.2021 266.843 14.6875 266.057 14.6875H264.901V12.2402H266.057ZM279.627 17.9482H281.165V14.6875H280.064V8.75391H278.362V11.6113H275.313V8.75391H273.611V16H275.313V12.9307H278.362V16H279.627V17.9482ZM282.629 16H285.726C287.414 16 288.501 15.0156 288.501 13.4707V13.457C288.501 11.9121 287.414 10.9277 285.726 10.9277H284.331V8.75391H282.629V16ZM289.321 16H291.023V8.75391H289.321V16ZM285.486 12.2402C286.266 12.2402 286.765 12.7188 286.765 13.457V13.4707C286.765 14.2021 286.272 14.6875 285.486 14.6875H284.331V12.2402H285.486ZM295.796 16.1436C297.642 16.1436 298.852 15.248 298.852 13.8877V13.874C298.852 13.0195 298.325 12.4453 297.348 12.2539V12.1992C298.154 12.0215 298.653 11.4199 298.653 10.6475V10.6338C298.653 9.37598 297.601 8.60352 295.864 8.60352C294.142 8.60352 293.055 9.39648 292.877 10.7773L292.87 10.8252H294.477L294.483 10.7773C294.593 10.2373 295.085 9.92285 295.83 9.92285C296.562 9.92285 296.992 10.2578 296.992 10.832V10.8457C296.992 11.4404 296.582 11.748 295.762 11.748H294.757V12.8965H295.775C296.705 12.8965 297.163 13.2041 297.163 13.8398V13.8535C297.163 14.4551 296.637 14.8242 295.789 14.8242C295.003 14.8242 294.497 14.5303 294.34 13.9629L294.319 13.8945H292.679L292.686 13.9492C292.836 15.3164 294.012 16.1436 295.796 16.1436ZM307.228 16.1436C309.395 16.1436 310.734 14.7559 310.734 12.4932V12.4795C310.734 10.374 309.47 9.03418 307.521 9.03418C306.353 9.03418 305.498 9.51953 305.04 10.3809H305.006L305.02 10.2852C305.286 8.3916 305.915 7.56445 307.761 7.49609L308.465 7.47559C309.299 7.44824 310.01 7.30469 310.263 7.12012V5.75977C309.853 5.95117 309.142 6.06738 308.362 6.08789L307.624 6.11523C304.924 6.21094 303.666 7.80371 303.666 11.8301V11.8438C303.666 14.6738 304.931 16.1436 307.228 16.1436ZM307.2 14.7695C306.065 14.7695 305.402 13.9561 305.402 12.5205V12.5068C305.402 11.1465 306.065 10.374 307.2 10.374C308.335 10.374 308.998 11.1465 308.998 12.5068V12.5205C308.998 13.9561 308.335 14.7695 307.2 14.7695ZM314.604 16.123C315.555 16.123 316.361 15.6445 316.785 14.8857H316.819V16H318.521V11.0166C318.521 9.56055 317.359 8.60352 315.541 8.60352C313.702 8.60352 312.595 9.56738 312.485 10.8525L312.479 10.9346H314.058L314.071 10.873C314.181 10.3398 314.68 9.96387 315.486 9.96387C316.341 9.96387 316.819 10.4082 316.819 11.1396V11.6387L314.926 11.7549C313.176 11.8643 312.171 12.6367 312.171 13.9219V13.9355C312.171 15.2275 313.148 16.123 314.604 16.123ZM313.873 13.8672V13.8604C313.873 13.2861 314.331 12.9238 315.165 12.8691L316.819 12.7666V13.3135C316.819 14.1748 316.088 14.8242 315.11 14.8242C314.358 14.8242 313.873 14.4619 313.873 13.8672ZM322.255 12.8623H323.848V12.5205C323.848 11.8506 324.101 11.4883 324.996 10.9688C325.926 10.415 326.445 9.68359 326.445 8.64453V8.6377C326.445 7.12695 325.188 6.05371 323.321 6.05371C321.291 6.05371 320.204 7.22949 320.129 8.76074L320.122 8.83594H321.729L321.735 8.77441C321.797 7.99512 322.351 7.44824 323.232 7.44824C324.087 7.44824 324.668 7.96777 324.668 8.69922V8.70605C324.668 9.37598 324.381 9.74512 323.533 10.2578C322.59 10.8115 322.207 11.4336 322.255 12.3838V12.8623ZM323.075 16.0752C323.629 16.0752 324.066 15.6514 324.066 15.1113C324.066 14.5645 323.629 14.1475 323.075 14.1475C322.521 14.1475 322.077 14.5645 322.077 15.1113C322.077 15.6514 322.521 16.0752 323.075 16.0752Z" fill="#B376F7"/>
</svg>
