<svg width="375" height="798" viewBox="0 0 375 798" fill="none" xmlns="http://www.w3.org/2000/svg">
<path d="M-346.727 1210.56L484.625 992.191C491.232 990.457 497.433 987.438 502.874 983.308C508.314 979.177 512.888 974.015 516.333 968.116C519.778 962.218 522.028 955.698 522.953 948.93C523.878 942.162 523.46 935.278 521.724 928.671L287.714 38.7873C284.2 25.4443 275.531 14.043 263.613 7.08999C251.695 0.136995 237.504 -1.79856 224.159 1.70913L-607.192 220.081C-613.799 221.814 -620.001 224.833 -625.442 228.963C-630.883 233.094 -635.456 238.255 -638.902 244.154C-642.347 250.052 -644.597 256.572 -645.521 263.34C-646.446 270.108 -646.028 276.993 -644.291 283.6L-410.279 1173.48C-406.766 1186.83 -398.097 1198.23 -386.18 1205.18C-374.263 1212.13 -360.071 1214.07 -346.727 1210.56V1210.56Z" fill="#D1A4FC"/>
</svg>
