<svg width="375" height="724" viewBox="0 0 375 724" fill="none" xmlns="http://www.w3.org/2000/svg">
<path d="M466.051 1299.92L928.974 575.748C932.654 569.994 935.165 563.57 936.362 556.845C937.56 550.12 937.421 543.226 935.953 536.555C934.485 529.884 931.717 523.567 927.807 517.966C923.897 512.365 918.922 507.589 913.166 503.911L137.698 8.55291C126.068 1.12739 111.966 -1.37572 98.491 1.59413C85.0163 4.56399 73.2728 12.7629 65.8423 24.3893L-397.081 748.562C-400.761 754.316 -403.272 760.739 -404.47 767.464C-405.667 774.189 -405.528 781.083 -404.06 787.754C-402.592 794.425 -399.824 800.742 -395.914 806.343C-392.005 811.944 -387.03 816.72 -381.274 820.398L394.197 1315.76C405.827 1323.19 419.93 1325.69 433.404 1322.72C446.878 1319.75 458.621 1311.55 466.051 1299.92Z" fill="#5415C6"/>
</svg>
