<svg width="375" height="545" viewBox="0 0 375 545" fill="none" xmlns="http://www.w3.org/2000/svg">
<path d="M-306.838 1210.72L524.203 992.317C530.809 990.581 537.008 987.56 542.447 983.428C547.886 979.296 552.458 974.134 555.901 968.235C559.345 962.336 561.593 955.817 562.517 949.05C563.441 942.282 563.023 935.398 561.287 928.792L327.364 38.7918C323.856 25.4498 315.192 14.0479 303.278 7.09353C291.363 0.139198 277.175 -1.79791 263.833 1.70877L-567.206 220.109C-580.548 223.615 -591.95 232.278 -598.905 244.191C-605.86 256.104 -607.798 270.293 -604.292 283.635L-370.367 1173.63C-366.86 1186.98 -358.196 1198.38 -346.282 1205.33C-334.368 1212.29 -320.18 1214.22 -306.838 1210.72Z" fill="#3E0FA6"/>
</svg>
