<svg width="78" height="32" viewBox="0 0 78 32" fill="none" xmlns="http://www.w3.org/2000/svg">
<g filter="url(#filter0_d_7_127)">
<rect x="4" width="70" height="24" rx="8" fill="#F9FAFB" shape-rendering="crispEdges"/>
<rect x="4.5" y="0.5" width="69" height="23" rx="7.5" stroke="black" shape-rendering="crispEdges"/>
<path d="M24.543 16.1406C26.9863 16.1406 28.5039 14.459 28.5039 11.7754V11.7637C28.5039 9.08594 26.9805 7.4043 24.543 7.4043C22.1113 7.4043 20.582 9.08008 20.582 11.7637V11.7754C20.582 14.4648 22.1055 16.1406 24.543 16.1406ZM24.543 8.56445C25.9902 8.56445 26.957 9.56641 27.1328 11.2012H21.9473C22.1289 9.56055 23.1016 8.56445 24.543 8.56445ZM24.543 14.9805C23.0488 14.9805 22.0645 13.9082 21.9355 12.1738H27.1504C27.0215 13.8965 26.0547 14.9805 24.543 14.9805ZM34.8984 9.83594H29.7715V10.8438H31.6992V16H32.9707V10.8438H34.8984V9.83594ZM37.8125 13.252L40.0801 16H41.6445L38.9434 12.7305L41.5391 9.83594H40.0449L37.8125 12.3789H37.5898V9.83594H36.3242V16H37.5898V13.252H37.8125ZM43.6504 8.88672C44.0664 8.88672 44.3887 8.55859 44.3887 8.16016C44.3887 7.75586 44.0664 7.42773 43.6504 7.42773C43.2402 7.42773 42.9121 7.75586 42.9121 8.16016C42.9121 8.55859 43.2402 8.88672 43.6504 8.88672ZM43.0176 16H44.2832V9.83594H43.0176V16ZM48.416 16.123C49.9277 16.123 50.9297 15.3555 50.9297 14.207V14.1953C50.9297 13.4746 50.4844 12.9824 49.6699 12.8184V12.7715C50.332 12.6191 50.7598 12.0977 50.7598 11.4355V11.4238C50.7598 10.3691 49.8926 9.71875 48.4746 9.71875C47.0859 9.71875 46.1777 10.375 46.0312 11.4707L46.0254 11.5176H47.2324L47.2383 11.4766C47.332 11.0078 47.7949 10.7207 48.457 10.7207C49.125 10.7207 49.5234 11.0312 49.5234 11.5586V11.5703C49.5234 12.1211 49.1426 12.4023 48.3984 12.4023H47.5137V13.3223H48.4043C49.2598 13.3223 49.6699 13.6035 49.6699 14.1953V14.207C49.6699 14.7695 49.1895 15.1152 48.4102 15.1152C47.7129 15.1152 47.2559 14.8457 47.1152 14.3477L47.0977 14.2891H45.8555L45.8613 14.3418C45.9844 15.4316 46.9746 16.123 48.416 16.123ZM53.1758 18.0566C54.3828 18.0566 55.0273 17.5645 55.4844 16.2871L57.7812 9.83594H56.4453L54.8926 14.8516H54.8516L53.2988 9.83594H51.9277L54.1719 16.0059L54.0664 16.2988C53.8555 16.8965 53.5273 17.0547 52.9297 17.0547C52.7598 17.0547 52.6133 17.0312 52.5137 17.0078V17.998C52.666 18.0273 52.9297 18.0566 53.1758 18.0566Z" fill="#111827"/>
</g>
<defs>
<filter id="filter0_d_7_127" x="0" y="0" width="78" height="32" filterUnits="userSpaceOnUse" color-interpolation-filters="sRGB">
<feFlood flood-opacity="0" result="BackgroundImageFix"/>
<feColorMatrix in="SourceAlpha" type="matrix" values="0 0 0 0 0 0 0 0 0 0 0 0 0 0 0 0 0 0 127 0" result="hardAlpha"/>
<feOffset dy="4"/>
<feGaussianBlur stdDeviation="2"/>
<feComposite in2="hardAlpha" operator="out"/>
<feColorMatrix type="matrix" values="0 0 0 0 0 0 0 0 0 0 0 0 0 0 0 0 0 0 0.25 0"/>
<feBlend mode="normal" in2="BackgroundImageFix" result="effect1_dropShadow_7_127"/>
<feBlend mode="normal" in="SourceGraphic" in2="effect1_dropShadow_7_127" result="shape"/>
</filter>
</defs>
</svg>
